<svg xmlns="http://www.w3.org/2000/svg" width="54" height="52" viewBox="0 0 54 52" fill="none">
    <path
        d="M40.9296 24.8417C40.9296 33.0386 34.1619 39.6835 25.8135 39.6835C17.465 39.6835 10.6973 33.0386 10.6973 24.8417C10.6973 16.6449 17.465 10 25.8135 10C34.1619 10 40.9296 16.6449 40.9296 24.8417Z"
        fill="#9EDCFF" />
    <path
        d="M17.0508 28.2368C17.0508 30.8484 19.2162 32.9737 21.877 32.9737C24.5379 32.9737 26.7033 30.8484 26.7033 28.2368C26.7033 25.6253 24.5379 23.5 21.877 23.5C19.2162 23.5 17.0508 25.6253 17.0508 28.2368ZM30.457 43.5H31.5295V42.4474C31.5295 38.3853 28.1608 35.0789 24.022 35.0789H19.7321C15.5922 35.0789 12.2246 38.3853 12.2246 42.4474V43.5H30.457Z"
        fill="#7A73FF" />
    <path fill-rule="evenodd" clip-rule="evenodd"
        d="M30.4565 38.9199C28.9487 39.4152 27.3349 39.6835 25.6574 39.6835C21.8869 39.6835 18.4388 38.3281 15.791 36.0864C16.9032 35.4462 18.1972 35.0789 19.577 35.0789H23.8669C26.7047 35.0789 29.1804 36.6333 30.4565 38.9199ZM21.7219 32.9737C19.0611 32.9737 16.8957 30.8484 16.8957 28.2368C16.8957 25.6253 19.0611 23.5 21.7219 23.5C24.3828 23.5 26.5482 25.6253 26.5482 28.2368C26.5482 30.8484 24.3828 32.9737 21.7219 32.9737Z"
        fill="#3D00FF" />
    <path
        d="M37.6982 13C35.1701 13 33.1133 14.9626 33.1133 17.375H34.9472C34.9472 15.9277 36.1815 14.75 37.6982 14.75C39.2149 14.75 40.4491 15.9277 40.4491 17.375C40.4491 18.3104 40.0328 18.6569 39.0911 19.3481C38.7408 19.6054 38.3456 19.8959 37.9669 20.2564C36.7638 21.4035 36.7766 22.5349 36.7812 22.625V24.375H38.6152V22.6171C38.6152 22.5961 38.6363 22.0912 39.2635 21.4936C39.5569 21.2136 39.8889 20.9704 40.2089 20.735C41.1809 20.021 42.2831 19.2125 42.2831 17.375C42.2831 14.9626 40.2263 13 37.6982 13ZM36.7812 25.25H38.6152V27H36.7812V25.25Z"
        fill="#7A73FF" />
    <path fill-rule="evenodd" clip-rule="evenodd"
        d="M35.5672 13.5019C36.068 13.9176 36.541 14.3647 36.9828 14.84C35.8118 15.1413 34.9472 16.1638 34.9472 17.375H33.1133C33.1133 15.6962 34.1094 14.2352 35.5672 13.5019ZM39.6721 18.9035C39.5068 19.0407 39.3136 19.1848 39.0911 19.3481C38.7408 19.6054 38.3456 19.8959 37.9669 20.2564C36.7638 21.4035 36.7766 22.5349 36.7812 22.625V24.375H38.6152V22.6171C38.6152 22.5961 38.6363 22.0913 39.2635 21.4936C39.5529 21.2174 39.8799 20.977 40.1959 20.7446L40.2089 20.735L40.2107 20.7337C40.247 20.707 40.2836 20.6801 40.3202 20.6531C40.1408 20.0533 39.9239 19.4692 39.6721 18.9035ZM38.6152 27V25.25H36.7812V27H38.6152Z"
        fill="#3D00FF" />
    <path
        d="M35.7593 9.63086L36.5264 12.1118C36.5986 12.3481 36.8321 12.5073 37.0933 12.5073C37.3546 12.5073 37.5881 12.3481 37.6603 12.1118L38.4274 9.63086L41.1122 8.92202C41.3679 8.85522 41.5402 8.63946 41.5402 8.39805C41.5402 8.15663 41.3679 7.94088 41.1122 7.87414L38.4274 7.16531L37.6603 4.68429C37.5881 4.44801 37.3546 4.28877 37.0933 4.28877C36.8321 4.28877 36.5986 4.44801 36.5264 4.68429L35.7593 7.16531L33.0745 7.87414C32.8188 7.94088 32.6465 8.15663 32.6465 8.39805C32.6465 8.63946 32.8188 8.85522 33.0745 8.92202L35.7593 9.63086Z"
        fill="#7A73FF" />
    <path
        d="M45.5985 15.3228L46.0666 16.8366C46.1106 16.9808 46.2531 17.078 46.4125 17.078C46.5719 17.078 46.7144 16.9808 46.7584 16.8366L47.2265 15.3228L48.8646 14.8903C49.0207 14.8496 49.1258 14.7179 49.1258 14.5706C49.1258 14.4233 49.0207 14.2917 48.8646 14.251L47.2265 13.8184L46.7584 12.3046C46.7144 12.1604 46.5719 12.0633 46.4125 12.0633C46.2531 12.0633 46.1106 12.1604 46.0666 12.3046L45.5985 13.8184L43.9604 14.251C43.8043 14.2917 43.6992 14.4233 43.6992 14.5706C43.6992 14.7179 43.8043 14.8496 43.9604 14.8903L45.5985 15.3228Z"
        fill="#7A73FF" />
</svg>