<svg xmlns="http://www.w3.org/2000/svg" width="21" height="20" viewBox="0 0 21 20" fill="none">
    <path
        d="M9.66663 14.1666L11.3333 15.8333C11.4974 15.9974 11.6923 16.1276 11.9068 16.2165C12.1213 16.3053 12.3511 16.351 12.5833 16.351C12.8154 16.351 13.0453 16.3053 13.2598 16.2165C13.4743 16.1276 13.6691 15.9974 13.8333 15.8333C13.9974 15.6691 14.1277 15.4742 14.2165 15.2597C14.3053 15.0453 14.3511 14.8154 14.3511 14.5833C14.3511 14.3511 14.3053 14.1212 14.2165 13.9068C14.1277 13.6923 13.9974 13.4974 13.8333 13.3333"
        stroke="white" stroke-width="1.5" stroke-linecap="round" stroke-linejoin="round" />
    <path
        d="M12.1666 11.6666L14.2499 13.7499C14.5815 14.0815 15.0311 14.2677 15.4999 14.2677C15.9688 14.2677 16.4184 14.0815 16.7499 13.7499C17.0815 13.4184 17.2677 12.9688 17.2677 12.4999C17.2677 12.0311 17.0815 11.5815 16.7499 11.2499L13.5166 8.0166C13.0479 7.54843 12.4124 7.28546 11.7499 7.28546C11.0874 7.28546 10.452 7.54843 9.98328 8.0166L9.24994 8.74993C8.91842 9.08145 8.46879 9.2677 7.99994 9.2677C7.5311 9.2677 7.08147 9.08145 6.74994 8.74993C6.41842 8.41841 6.23218 7.96877 6.23218 7.49993C6.23218 7.03109 6.41842 6.58145 6.74994 6.24993L9.09161 3.90826C9.85181 3.15005 10.8432 2.66706 11.9088 2.53574C12.9744 2.40443 14.0534 2.63229 14.9749 3.18326L15.3666 3.4166C15.7214 3.63075 16.1433 3.70503 16.5499 3.62493L17.9999 3.33326"
        stroke="white" stroke-width="1.5" stroke-linecap="round" stroke-linejoin="round" />
    <path d="M18 2.5L18.8333 11.6667H17.1666" stroke="white" stroke-width="1.5"
        stroke-linecap="round" stroke-linejoin="round" />
    <path
        d="M2.99996 2.5L2.16663 11.6667L7.58329 17.0833C7.91481 17.4149 8.36445 17.6011 8.83329 17.6011C9.30213 17.6011 9.75177 17.4149 10.0833 17.0833C10.4148 16.7518 10.6011 16.3022 10.6011 15.8333C10.6011 15.3645 10.4148 14.9149 10.0833 14.5833"
        stroke="white" stroke-width="1.5" stroke-linecap="round" stroke-linejoin="round" />
    <path d="M3 3.33325H9.66667" stroke="white" stroke-width="1.5" stroke-linecap="round"
        stroke-linejoin="round" />
</svg>