<svg xmlns="http://www.w3.org/2000/svg" width="21" height="20" viewBox="0 0 21 20" fill="none">
    <path d="M15.5 17.5C15.5 16.1739 14.9732 14.9021 14.0355 13.9645C13.0979 13.0268 11.8261 12.5 10.5 12.5C9.17392 12.5 7.90215 13.0268 6.96447 13.9645C6.02678 14.9021 5.5 16.1739 5.5 17.5" stroke="#5B52F9" stroke-width="1.5" stroke-linecap="round" stroke-linejoin="round"/>
    <path d="M10.5 12.4999C12.3409 12.4999 13.8333 11.0075 13.8333 9.16659C13.8333 7.32564 12.3409 5.83325 10.5 5.83325C8.65901 5.83325 7.16663 7.32564 7.16663 9.16659C7.16663 11.0075 8.65901 12.4999 10.5 12.4999Z" stroke="#5B52F9" stroke-width="1.5" stroke-linecap="round" stroke-linejoin="round"/>
    <path d="M16.3333 2.5H4.66667C3.74619 2.5 3 3.24619 3 4.16667V15.8333C3 16.7538 3.74619 17.5 4.66667 17.5H16.3333C17.2538 17.5 18 16.7538 18 15.8333V4.16667C18 3.24619 17.2538 2.5 16.3333 2.5Z" stroke="#5B52F9" stroke-width="1.5" stroke-linecap="round" stroke-linejoin="round"/>
  </svg>