<svg xmlns="http://www.w3.org/2000/svg" width="41" height="41" viewBox="0 0 41 41" fill="none">
    <path
        d="M31.4614 17.4069C31.4614 23.7122 26.3499 28.8237 20.0447 28.8237C13.7394 28.8237 8.62793 23.7122 8.62793 17.4069C8.62793 11.1016 13.7394 5.9902 20.0447 5.9902C26.3499 5.9902 31.4614 11.1016 31.4614 17.4069Z"
        fill="#9EDCFF" />
    <path
        d="M26.6156 7.90835L27.195 9.81679C27.2496 9.99858 27.4259 10.121 27.6232 10.121C27.8205 10.121 27.9968 9.99858 28.0514 9.81679L28.6307 7.90835L30.6585 7.36309C30.8516 7.31171 30.9818 7.14574 30.9818 6.96004C30.9818 6.77433 30.8516 6.60837 30.6585 6.55703L28.6307 6.01177L28.0514 4.1033C27.9968 3.92155 27.8205 3.79906 27.6232 3.79906C27.4259 3.79906 27.2496 3.92155 27.195 4.1033L26.6156 6.01177L24.5879 6.55703C24.3948 6.60837 24.2646 6.77433 24.2646 6.96004C24.2646 7.14574 24.3948 7.31171 24.5879 7.36309L26.6156 7.90835Z"
        fill="#7A73FF" />
    <path
        d="M34.0468 12.2868L34.4003 13.4512C34.4336 13.5621 34.5411 13.6369 34.6615 13.6369C34.7819 13.6369 34.8895 13.5621 34.9228 13.4512L35.2763 12.2868L36.5136 11.9541C36.6314 11.9227 36.7108 11.8215 36.7108 11.7082C36.7108 11.5948 36.6314 11.4936 36.5136 11.4623L35.2763 11.1295L34.9228 9.9651C34.8895 9.85417 34.7819 9.77945 34.6615 9.77945C34.5411 9.77945 34.4336 9.85417 34.4003 9.9651L34.0468 11.1295L32.8095 11.4623C32.6917 11.4936 32.6123 11.5948 32.6123 11.7082C32.6123 11.8215 32.6917 11.9227 32.8095 11.9541L34.0468 12.2868Z"
        fill="#7A73FF" />
</svg>