<svg width="30" height="30" viewBox="0 0 30 30" fill="none" xmlns="http://www.w3.org/2000/svg">
<g id="Frame">
<path id="Vector" d="M3.74992 17.4999H6.24992V26.2499C6.24992 26.5815 6.38161 26.8994 6.61603 27.1338C6.85045 27.3682 7.1684 27.4999 7.49992 27.4999H22.4999C22.8314 27.4999 23.1494 27.3682 23.3838 27.1338C23.6182 26.8994 23.7499 26.5815 23.7499 26.2499V17.4999H26.2499C26.4915 17.5002 26.7279 17.4302 26.9305 17.2986C27.1331 17.1671 27.2931 16.9795 27.3912 16.7587C27.4899 16.538 27.5223 16.2934 27.4846 16.0546C27.4469 15.8159 27.3406 15.5932 27.1787 15.4137L15.9287 2.91369C15.4549 2.38619 14.5449 2.38619 14.0712 2.91369L2.82117 15.4137C2.65953 15.5933 2.5534 15.8158 2.51562 16.0545C2.47784 16.2931 2.51003 16.5376 2.60829 16.7583C2.70655 16.979 2.86668 17.1666 3.06929 17.2982C3.2719 17.4298 3.50831 17.4999 3.74992 17.4999ZM10.8162 14.5512C11.3365 14.0375 12.0382 13.7495 12.7693 13.7495C13.5004 13.7495 14.2021 14.0375 14.7224 14.5512L15.0024 14.8262L15.2812 14.5512C15.8017 14.0374 16.5036 13.7494 17.2349 13.7494C17.9663 13.7494 18.6682 14.0374 19.1887 14.5512C19.4469 14.7996 19.6523 15.0976 19.7926 15.4273C19.933 15.757 20.0053 16.1116 20.0053 16.4699C20.0053 16.8283 19.933 17.1829 19.7926 17.5126C19.6523 17.8423 19.4469 18.1403 19.1887 18.3887L15.0024 22.4999L10.8162 18.3887C10.5579 18.1403 10.3525 17.8423 10.2122 17.5126C10.0719 17.1829 9.99956 16.8283 9.99956 16.4699C9.99956 16.1116 10.0719 15.757 10.2122 15.4273C10.3525 15.0976 10.5579 14.7996 10.8162 14.5512Z" fill="#5B52F9"/>
</g>
</svg>
