<svg width="30" height="30" viewBox="0 0 30 30" fill="none" xmlns="http://www.w3.org/2000/svg">
<g id="Frame">
<path id="Vector" d="M4.2675 17.2225L2.5 18.99L8.68625 21.6412L11.3387 27.8287L13.1062 26.0612L12.2225 21.6412L16.3637 17.5L20.8763 27.13L22.55 25.4562L21.0625 12.8025L24.5975 9.26624C24.8363 9.03562 25.0267 8.75976 25.1578 8.45475C25.2888 8.14974 25.3577 7.82169 25.3606 7.48974C25.3635 7.15779 25.3003 6.82859 25.1746 6.52135C25.0489 6.21411 24.8632 5.93498 24.6285 5.70025C24.3938 5.46552 24.1146 5.27989 23.8074 5.15418C23.5001 5.02848 23.1709 4.96523 22.839 4.96811C22.507 4.971 22.179 5.03996 21.874 5.17099C21.569 5.30201 21.2931 5.49246 21.0625 5.73124L17.4337 9.35999L4.78 7.87124L3.19875 9.45374L12.7537 14.0412L8.6875 18.1075L4.2675 17.2225Z" fill="#5B52F9"/>
</g>
</svg>
