<svg width="30" height="30" viewBox="0 0 30 30" fill="none" xmlns="http://www.w3.org/2000/svg">
<g id="Frame">
<path id="Vector" d="M23.7392 2.5H11.263C9.87422 2.5 8.75046 3.62375 8.75046 5.0125V12.0588L2.87296 17.8612C2.69686 18.0354 2.57647 18.258 2.52707 18.5007C2.47767 18.7434 2.50149 18.9953 2.59551 19.2245C2.68952 19.4536 2.8495 19.6497 3.05513 19.7878C3.26076 19.9258 3.50278 19.9997 3.75046 20V26.25C3.75046 26.5815 3.88216 26.8995 4.11658 27.1339C4.351 27.3683 4.66894 27.5 5.00046 27.5H25.0005C25.332 27.5 25.6499 27.3683 25.8843 27.1339C26.1188 26.8995 26.2505 26.5815 26.2505 26.25V5.01125C26.2505 3.62375 25.128 2.5 23.7392 2.5ZM13.653 18.8888V25H6.25046V18.04L9.98421 14.3538L13.653 18.1075V18.8888ZM16.2505 11.25H13.7505V8.75H16.2505V11.25ZM21.2505 21.25H18.7505V18.75H21.2505V21.25ZM21.2505 16.25H18.7505V13.75H21.2505V16.25ZM21.2505 11.25H18.7505V8.75H21.2505V11.25Z" fill="#5B52F9"/>
<path id="Vector_2" d="M8.75 18.75H11.25V21.25H8.75V18.75Z" fill="#5B52F9"/>
</g>
</svg>
