<svg xmlns="http://www.w3.org/2000/svg" width="21" height="20" viewBox="0 0 21 20" fill="none">
    <path d="M17.1667 5.83317H14.6667C14.2246 5.83317 13.8007 5.65758 13.4882 5.34502C13.1756 5.03245 13 4.60853 13 4.1665V1.6665" stroke="white" stroke-width="1.5" stroke-linecap="round" stroke-linejoin="round"/>
    <path d="M7.99967 14.9998C7.55765 14.9998 7.13372 14.8242 6.82116 14.5117C6.5086 14.1991 6.33301 13.7752 6.33301 13.3332V3.33317C6.33301 2.89114 6.5086 2.46722 6.82116 2.15466C7.13372 1.8421 7.55765 1.6665 7.99967 1.6665H13.833L17.1663 4.99984V13.3332C17.1663 13.7752 16.9907 14.1991 16.6782 14.5117C16.3656 14.8242 15.9417 14.9998 15.4997 14.9998H7.99967Z" stroke="white" stroke-width="1.5" stroke-linecap="round" stroke-linejoin="round"/>
    <path d="M3 6.3335V17.0002C3 17.3538 3.14048 17.6929 3.39052 17.943C3.64057 18.193 3.97971 18.3335 4.33333 18.3335H12.5" stroke="white" stroke-width="1.5" stroke-linecap="round" stroke-linejoin="round"/>
  </svg>