<svg width="160" height="160" viewBox="0 0 160 160" fill="none" xmlns="http://www.w3.org/2000/svg">
<g id="Frame">
<path id="Vector" d="M79.9997 13.3335C43.2397 13.3335 13.333 43.2402 13.333 80.0002C13.333 116.76 43.2397 146.667 79.9997 146.667C116.76 146.667 146.666 116.76 146.666 80.0002C146.666 43.2402 116.76 13.3335 79.9997 13.3335ZM46.6663 70.0002C46.6672 67.3471 47.722 64.8031 49.5986 62.9277C50.5278 61.9991 51.6308 61.2627 52.8446 60.7603C54.0585 60.258 55.3594 59.9997 56.673 60.0002C57.9867 60.0006 59.2874 60.2598 60.5009 60.7629C61.7144 61.266 62.8169 62.0032 63.7455 62.9324C64.674 63.8616 65.4105 64.9646 65.9128 66.1785C66.4151 67.3923 66.6734 68.6932 66.673 70.0068C66.6721 72.6599 65.6174 75.2039 63.7407 77.0793C61.8641 78.9546 59.3194 80.0077 56.6663 80.0068C54.0133 80.0059 51.4693 78.9512 49.5939 77.0746C47.7185 75.1979 46.6655 72.6532 46.6663 70.0002ZM53.333 113.333C53.333 113.333 59.9997 93.3335 79.9997 93.3335C99.9997 93.3335 106.666 113.333 106.666 113.333H53.333ZM103.286 79.9068C101.957 79.9408 100.635 79.7082 99.3967 79.2229C98.1587 78.7376 97.0305 78.0093 96.0785 77.081C95.1266 76.1528 94.3701 75.0433 93.8537 73.818C93.3374 72.5927 93.0716 71.2764 93.072 69.9467C93.0725 68.6171 93.3391 67.301 93.8563 66.076C94.3735 64.8511 95.1307 63.7421 96.0833 62.8145C97.0359 61.8868 98.1646 61.1593 99.4029 60.6748C100.641 60.1903 101.964 59.9587 103.293 59.9935C105.889 60.0615 108.356 61.1409 110.168 63.0014C111.979 64.8619 112.993 67.3565 112.992 69.9534C112.991 72.5504 111.976 75.0443 110.163 76.9036C108.35 78.7629 105.882 79.8405 103.286 79.9068Z" fill="#5B52F9"/>
</g>
</svg>
