<svg width="210" height="112" viewBox="0 0 210 112" fill="none" xmlns="http://www.w3.org/2000/svg">
<g id="Group 64">
<path id="4" d="M0 88.9762V73.5344L45.6628 1.66455H58.5891V23.6495H50.7072L19.9676 72.1734V73.011H83.7063V88.9762H0ZM51.3378 108.867V84.2652L51.5479 77.3556V1.66455H69.9391V108.867H51.3378Z" fill="#5B52F9"/>
<path id="0" d="M105 111.804C96.2648 111.804 88.7676 109.605 82.5082 105.208C76.2842 100.775 71.4924 94.3901 68.1328 86.0525C64.8086 77.6796 63.1465 67.6006 63.1465 55.8153C63.1818 44.03 64.8616 34.0037 68.1858 25.7364C71.5454 17.434 76.3372 11.1016 82.5613 6.73927C88.8207 2.37696 96.3001 0.195801 105 0.195801C113.699 0.195801 121.179 2.37696 127.438 6.73927C133.697 11.1016 138.489 17.434 141.813 25.7364C145.173 34.0389 146.853 44.0652 146.853 55.8153C146.853 67.6358 145.173 77.7324 141.813 86.1052C138.489 94.4429 133.697 100.81 127.438 105.208C121.214 109.605 113.735 111.804 105 111.804ZM105 95.2872C111.789 95.2872 117.147 91.9627 121.073 85.3137C125.033 78.6295 127.014 68.7967 127.014 55.8153C127.014 47.2314 126.112 40.0195 124.308 34.1796C122.505 28.3398 119.959 23.9423 116.67 20.9872C113.381 17.9969 109.491 16.5017 105 16.5017C98.2451 16.5017 92.9052 19.8438 88.9798 26.528C85.0544 33.177 83.074 42.9394 83.0387 55.8153C83.0033 64.4344 83.8697 71.6814 85.6379 77.5565C87.4415 83.4316 89.9877 87.8642 93.2765 90.8545C96.5653 93.8096 100.473 95.2872 105 95.2872Z" fill="#5B52F9"/>
<path id="4_2" d="M126.294 88.9762V73.5344L171.957 1.66455H184.883V23.6495H177.001L146.262 72.1734V73.011H210V88.9762H126.294ZM177.632 108.867V84.2652L177.842 77.3556V1.66455H196.233V108.867H177.632Z" fill="#5B52F9"/>
</g>
</svg>
