<svg width="366" height="288" viewBox="0 0 366 288" fill="none" xmlns="http://www.w3.org/2000/svg">
<g clip-path="url(#clip0_1668_9159)">
<path d="M116.246 194.123V215.506C116.246 224.707 109.084 231.616 99.5326 231.616C90.6809 231.616 82.8196 224.707 82.8196 215.506V181.293C82.8196 180.972 83.1798 180.972 83.1798 180.638C82.9397 180.424 82.8196 180.206 82.8196 179.983C82.8196 171.43 90.674 163.859 99.5326 163.859C121.018 163.859 138.396 147.415 138.396 127.027C138.396 106.64 121.018 90.1889 99.5326 90.1889C85.5693 90.1889 73.303 97.4323 66.8062 108.277C62.034 116.176 51.8178 118.802 43.631 114.198C35.8044 109.607 33.0547 100.058 37.8268 92.1735C50.0932 71.7796 73.303 57.9609 99.5326 57.9609C139.088 57.9609 171.482 88.8792 171.482 127.027C171.482 159.59 147.947 186.893 116.246 194.123ZM116.246 266.15V272.07C116.246 281.285 109.084 288.194 99.5326 288.194C90.6809 288.194 82.8196 281.285 82.8196 272.07V266.15C82.8196 257.269 90.674 250.039 99.5326 250.039C109.084 250.039 116.246 257.269 116.246 266.15Z" fill="#5B52F9"/>
<path opacity="0.6" d="M105.87 65.037C134.489 61.5623 160.283 89.7008 164.937 115.066C165.47 117.859 165.727 120.933 165.761 123.773C165.727 124.742 165.699 125.711 165.63 126.673C158.676 99.4434 135.909 69.9217 105.863 65.0437L105.87 65.037Z" fill="white"/>
<path d="M171.669 159.289C181.823 167.461 213.462 185.871 228.298 184.835C238.292 184.133 264.799 163.813 270 156.663C272.127 153.736 250.676 133.155 247.206 134.993C243.431 136.991 226.386 156.87 223.491 157.445C220.589 158.019 193.625 151.451 178.456 149.54C169.369 148.391 167.021 155.554 171.669 159.296V159.289Z" fill="white"/>
<path d="M264.03 162.583C269.536 158.728 284.684 141.347 286.873 137.285C289.061 133.222 294.492 121.087 291.43 119.156C288.376 117.218 286.492 120.653 286.492 120.653C286.492 120.653 288.168 114.686 284.684 113.503C281.9 112.561 278.991 117.252 278.991 117.252C278.991 117.252 280.473 110.616 276.857 109.874C273.567 109.2 271.746 115.02 271.746 115.02C271.746 115.02 272.404 109.347 269.1 109.28C265.131 109.2 263.988 119.022 261.225 123.332C260.595 124.315 239.047 142.403 239.047 142.403L264.023 162.59L264.03 162.583Z" fill="white"/>
<path d="M271.545 114.786C269.917 122.056 269.024 125.016 264.376 130.596C264.286 130.703 264.432 130.857 264.536 130.756C269.599 125.698 270.922 122.257 271.905 114.813C271.954 114.452 271.614 114.452 271.538 114.793L271.545 114.786Z" fill="#263238"/>
<path d="M278.914 117.265C277.349 124.689 275.451 127.83 271.032 134.011C270.97 134.098 271.115 134.211 271.185 134.124C276.047 128.404 278.617 124.869 279.171 117.252C279.198 116.904 278.984 116.924 278.914 117.259V117.265Z" fill="#263238"/>
<path d="M286.277 120.96C284.22 128.037 282.433 131.725 277.342 137.198C277.225 137.325 277.405 137.505 277.536 137.392C283.285 132.3 285.557 127.716 286.492 121.047C286.554 120.593 286.402 120.519 286.277 120.967V120.96Z" fill="#263238"/>
<path d="M239.047 142.396C239.047 142.396 243.438 134.892 245.336 131.23C247.234 127.569 251.12 116.51 254.7 115.835C258.718 115.073 258.6 125.704 255.261 132.259C255.261 132.259 264.356 140.438 261.46 146.887C260.837 148.283 254.957 153.689 253.156 153.796L239.054 142.396H239.047Z" fill="white"/>
<path d="M255.171 133.041C258.828 136.108 262.222 141.32 261.481 145.924C261.46 146.058 261.654 146.105 261.696 145.978C263.185 141.147 259.32 135.072 255.878 132.527C255.22 132.039 254.229 132.253 255.171 133.041Z" fill="#263238"/>
<path opacity="0.1" d="M278.166 110.57L262.25 145.551L257.062 156.95L249.09 174.471C241.118 179.964 232.938 184.514 228.298 184.835C213.462 185.877 181.829 167.461 171.676 159.289C167.028 155.547 169.376 148.39 178.463 149.533C193.625 151.451 220.589 158.013 223.498 157.438C225.34 157.071 232.917 148.885 239.151 142.47L239.054 142.39C239.054 142.39 243.438 134.886 245.343 131.217C247.241 127.556 251.126 116.497 254.7 115.822C257.762 115.247 258.42 121.268 257.083 127.074C259.417 125.056 261.059 123.58 261.225 123.319C263.988 119.002 265.131 109.186 269.1 109.267C272.404 109.327 271.746 115.007 271.746 115.007C271.746 115.007 273.56 109.18 276.857 109.861C277.405 109.975 277.834 110.222 278.159 110.563L278.166 110.57Z" fill="black"/>
<path d="M212.693 185.704L222.971 156.663C222.971 156.663 192.821 149.593 177.819 148.605C165.206 147.769 161.743 156.222 175.118 165.016C187.779 173.342 212.7 185.71 212.7 185.71L212.693 185.704Z" fill="#455A64"/>
<path d="M176.372 148.544L171.357 162.203C170.941 161.829 170.547 161.468 170.193 161.107L174.792 148.598C175.298 148.558 175.811 148.551 176.365 148.551L176.372 148.544ZM183.478 149.153L177.175 166.346C177.591 166.606 178.013 166.867 178.456 167.127L184.981 149.346C184.475 149.273 183.977 149.206 183.485 149.146L183.478 149.153ZM191.928 150.395L184.475 170.696C184.905 170.943 185.341 171.197 185.777 171.444L193.396 150.649C192.904 150.562 192.413 150.476 191.921 150.402L191.928 150.395ZM200.274 151.879L191.866 174.832C192.302 175.066 192.731 175.306 193.168 175.54L201.742 152.153C201.251 152.066 200.759 151.966 200.267 151.879H200.274ZM208.565 153.509L199.29 178.801C199.741 179.035 200.17 179.262 200.606 179.489L210.019 153.823C209.541 153.723 209.05 153.623 208.558 153.509H208.565ZM216.821 155.28L206.771 182.69C207.235 182.924 207.678 183.151 208.087 183.365L218.261 155.594C217.811 155.494 217.319 155.38 216.814 155.28H216.821Z" fill="#37474F"/>
<path d="M214.798 157.492C213.877 159.143 213.261 160.933 212.561 162.651C211.834 164.441 211.176 166.246 210.504 168.057C209.839 169.861 207.463 177.151 206.875 178.968C206.847 179.049 206.999 179.082 207.034 179.002C207.768 177.211 210.677 170.115 211.328 168.344C211.972 166.573 212.637 164.802 213.219 163.012C213.808 161.201 214.528 159.37 214.888 157.519C214.895 157.479 214.819 157.445 214.798 157.485V157.492Z" fill="#263238"/>
<path opacity="0.1" d="M215.719 177.157L212.693 185.704C212.693 185.704 187.779 173.335 175.118 165.009C163.364 157.285 164.611 149.821 173.643 148.698L215.719 177.157Z" fill="black"/>
<path d="M203.896 251.129L110.268 243.992C110.628 242.281 137.876 166.058 160.379 149.774C168.109 144.181 181.532 149.821 183.152 151.318C198.854 165.858 205.254 250.213 203.903 251.122L203.896 251.129Z" fill="#455A64"/>
<path d="M186.976 156.509L155.475 154.157C155.912 153.696 156.355 153.248 156.791 152.821L186.068 155.013C186.38 155.487 186.678 155.981 186.976 156.509ZM190.113 163.439L150.218 160.458C149.886 160.893 149.546 161.341 149.221 161.802L190.654 164.889C190.473 164.388 190.293 163.906 190.113 163.432V163.439ZM192.863 171.751L144.933 168.176C144.636 168.624 144.352 169.085 144.068 169.546L193.279 173.208C193.133 172.72 192.995 172.239 192.863 171.751ZM195.01 180.024L140.286 175.934C140.03 176.382 139.767 176.843 139.51 177.304L195.343 181.467C195.239 180.979 195.121 180.498 195.01 180.024ZM196.804 188.27L136.047 183.732C135.805 184.193 135.555 184.654 135.327 185.116L197.088 189.726C196.998 189.225 196.894 188.744 196.804 188.27ZM198.328 196.495L132.099 191.564C131.864 192.012 131.649 192.473 131.427 192.934L198.577 197.952C198.501 197.464 198.425 196.983 198.335 196.495H198.328ZM199.658 204.708L128.366 199.389C128.158 199.85 127.937 200.311 127.736 200.772L199.879 206.158C199.803 205.67 199.734 205.195 199.658 204.714V204.708ZM200.821 212.92L124.827 207.253C124.619 207.715 124.411 208.176 124.217 208.637L201.001 214.37C200.953 213.882 200.884 213.408 200.821 212.927V212.92ZM201.839 221.106L121.44 215.112C121.232 215.573 121.038 216.034 120.858 216.495L201.992 222.549C201.943 222.074 201.888 221.587 201.839 221.106ZM202.719 229.291L118.184 222.983C118.004 223.444 117.81 223.905 117.63 224.353L202.844 230.721C202.802 230.247 202.754 229.772 202.712 229.291H202.719ZM203.439 237.45L115.075 230.861C114.894 231.336 114.714 231.81 114.534 232.258L203.55 238.9C203.522 238.426 203.488 237.951 203.446 237.457L203.439 237.45ZM203.966 245.602L112.082 238.746C111.902 239.248 111.736 239.709 111.577 240.143L204.014 247.032C204 246.598 203.973 246.11 203.966 245.602Z" fill="#37474F"/>
<path d="M180.195 163.693C175.111 164.595 166.876 156.763 163.787 150.596C163.579 150.175 164.459 145.865 165.276 140.586C165.754 137.378 166.218 133.797 166.391 130.503C166.426 129.828 187.564 136.577 187.564 136.577C187.564 136.577 185.092 143.386 184.829 149.132C184.815 149.613 184.836 150.061 184.905 150.495C184.905 150.556 184.926 150.636 184.926 150.723C185.223 153.315 185.12 162.824 180.202 163.699L180.195 163.693Z" fill="white"/>
<path d="M167.7 130.649C168.4 136.269 171.288 149.914 182.716 150.723C183.513 150.783 184.247 150.776 184.912 150.716C184.919 150.622 184.905 150.555 184.898 150.489C184.836 150.054 184.801 149.613 184.815 149.132C185.085 143.372 187.558 136.563 187.558 136.563C187.558 136.563 172.306 131.699 167.7 130.649Z" fill="#263238"/>
<path d="M161.182 108.492C159.499 115.996 165.331 136.811 171.135 141.087C179.544 147.288 192.406 146.914 197.635 137.359C202.705 128.097 194.608 101.101 188.215 97.3059C178.796 91.7129 163.669 97.4061 161.182 108.492Z" fill="white"/>
<path d="M164.535 130.376C168.905 129.46 170.983 124.422 170.124 116.23C169.265 108.037 170.069 104.81 173.906 103.012C177.743 101.215 182.841 104.115 184.967 103.687C187.087 103.266 185.944 99.9585 187.696 99.6445C188.562 99.4908 191.443 101.556 194.484 106.948C194.484 106.948 191.789 91.4923 174.633 95.3011C158.682 98.8426 159.486 111.619 160.13 115.361C161.176 121.468 164.535 130.369 164.535 130.369V130.376Z" fill="#263238"/>
<path d="M169.626 125.517C169.626 125.517 163.946 119.189 160.919 121.214C157.892 123.239 162.672 132.754 166.585 133.73C170.498 134.705 171.503 131.231 171.503 131.231L169.619 125.524L169.626 125.517Z" fill="white"/>
<path d="M162.367 123.907C162.305 123.907 162.305 123.987 162.36 124.007C165.11 124.776 166.758 127.001 167.991 129.353C167.104 128.491 165.975 128.077 164.763 129.112C164.701 129.166 164.777 129.266 164.846 129.239C165.906 128.905 166.703 129.012 167.527 129.774C168.109 130.315 168.545 131.03 168.988 131.672C169.134 131.885 169.549 131.725 169.432 131.471C169.425 131.451 169.411 131.431 169.404 131.411C169.12 128.157 166.017 123.874 162.367 123.907Z" fill="#263238"/>
<path d="M192.669 117.519C192.669 117.466 192.801 117.559 192.814 117.613C193.154 119.03 193.784 120.593 195.232 120.727C195.273 120.727 195.294 120.8 195.239 120.807C193.569 121.001 192.752 118.909 192.669 117.519Z" fill="#263238"/>
<path d="M193.569 115.722C195.862 114.953 197.282 119.437 195.163 120.145C193.071 120.847 191.651 116.363 193.569 115.722Z" fill="#263238"/>
<path d="M181.206 118.862C181.885 118.909 182.522 118.842 183.201 118.816C183.963 118.789 184.579 118.842 185.223 118.395C185.57 118.154 185.667 117.553 185.452 117.205C184.96 116.397 184.011 116.203 183.09 116.196C182.093 116.196 181.317 116.43 180.534 117.038C179.779 117.626 180.299 118.802 181.199 118.862H181.206Z" fill="#263238"/>
<path d="M194.027 112.207C193.341 112.194 192.717 112.073 192.046 111.993C191.284 111.906 190.667 111.906 190.065 111.405C189.739 111.138 189.705 110.53 189.947 110.202C190.508 109.441 191.471 109.327 192.392 109.394C193.389 109.474 194.137 109.781 194.858 110.443C195.557 111.091 194.934 112.22 194.033 112.207H194.027Z" fill="#263238"/>
<path d="M186.574 133.616C187.01 133.857 187.481 134.218 188.022 134.131C188.541 134.044 189.074 133.67 189.49 133.383C189.532 133.356 189.594 133.383 189.573 133.436C189.344 134.071 188.638 134.612 187.932 134.666C187.246 134.719 186.768 134.258 186.449 133.717C186.408 133.643 186.505 133.583 186.574 133.616Z" fill="#263238"/>
<path d="M180.915 120.647C181.255 120.406 181.642 120.266 182.044 120.139C182.446 120.025 182.875 119.972 183.319 119.979C183.762 120.005 184.219 120.092 184.655 120.293C185.092 120.493 185.486 120.807 185.805 121.188L186.373 121.87L185.521 121.936C184.946 121.983 184.316 122.09 183.748 122.271C183.173 122.458 182.619 122.712 182.169 123.206C182.328 122.531 182.855 121.977 183.443 121.636C184.046 121.288 184.697 121.088 185.417 121.014L185.133 121.763C184.655 121.235 184.025 120.894 183.277 120.754C182.536 120.613 181.739 120.587 180.915 120.647Z" fill="#263238"/>
<path d="M184.08 123.641C184.655 123.3 185.237 123.086 185.722 122.598C185.833 122.485 186.255 122.01 186.2 121.903C186.089 121.616 185.867 121.309 185.66 121.035C185.923 121.275 186.2 121.489 186.38 121.843C186.408 122.171 186.248 122.545 185.923 122.832C185.403 123.293 184.662 123.561 184.08 123.647V123.641Z" fill="#263238"/>
<path d="M187.599 130.603C189.241 129.4 191.679 128.993 193.237 128.772C193.396 128.705 193.459 128.344 193.445 128.184V128.171C193.424 128.117 192.496 125.231 192.496 125.231C192.96 125.317 195.28 125.658 195.086 125.11C193.466 120.566 191.672 115.508 189.067 111.318C188.991 111.178 188.756 111.278 188.818 111.425C190.196 115.855 192.364 120.018 193.819 124.442C193.092 124.375 191.886 124.215 191.312 124.382C191.166 124.469 192.482 127.449 192.565 127.943C192.565 127.943 189.386 127.883 187.412 129.995C186.9 130.543 186.83 131.171 187.613 130.603H187.599Z" fill="#263238"/>
<path d="M190.286 128.424C190.286 128.424 190.688 131.244 189.324 132.273C187.751 133.456 186.02 131.745 187.433 129.881C188.174 128.899 190.293 128.431 190.293 128.431L190.286 128.424Z" fill="#263238"/>
<path d="M190.3 130.102C190.217 130.89 189.954 131.792 189.31 132.273C188.486 132.895 187.606 132.715 187.177 132.126V132.113C187.177 132.113 187.156 132.073 187.156 132.046C188.375 130.189 189.511 129.921 190.3 130.095V130.102Z" fill="#FF99BA"/>
<path d="M241.132 127.85L192.787 124.482L193.022 113.857L241.471 112.454L241.132 127.85Z" fill="#37474F"/>
<path d="M268.158 132.715L219.841 128.01L220.201 111.432L268.678 108.692L268.158 132.715Z" fill="#455A64"/>
<path d="M291.077 138.775L254.458 132.568L254.984 108.285L291.846 103.574L291.077 138.775Z" fill="#37474F"/>
<path d="M293.958 121.221C293.764 130.095 292.49 137.272 291.112 137.238C289.733 137.212 288.77 129.995 288.964 121.114C289.158 112.24 290.433 105.064 291.811 105.097C293.189 105.124 294.152 112.341 293.958 121.221Z" fill="#5B52F9"/>
<path d="M159.278 168.063C173.58 185.196 212.845 214.584 222.32 211.697C239.802 206.365 250.24 160.138 253.17 151.23C254.423 147.435 220.062 142.089 218.636 146.119C217.396 149.633 213.746 174.07 210.511 174.711C209.181 174.972 190.861 166.038 169.736 159.59C153.557 154.652 155.046 162.991 159.278 168.063Z" fill="white"/>
<path d="M216.966 153.629C216.966 153.629 218.144 149.874 218.123 140.305C218.109 132.828 223.47 115.247 243.535 107.075C251.223 103.941 256.861 107.777 249.471 112.401C244.27 115.655 240.37 117.479 238.985 119.003C238.985 119.003 248.432 119.891 251.168 124.495C252.387 126.553 255.587 132.247 257.429 137.018C257.429 137.018 256.46 137.686 255.102 138.361C255.102 138.361 258.351 144.268 253.502 150.148L251.196 158.02L216.966 153.636V153.629Z" fill="white"/>
<path d="M220.208 133.884C222.798 130.863 228.395 124.555 234.836 120.927C241.991 116.898 256.896 111.004 259.923 116.129C262.139 119.891 256.654 122.624 256.654 122.624C256.654 122.624 263.351 121.442 264.584 125.257C265.706 128.738 261.336 130.609 261.336 130.609C261.336 130.609 265.526 130.563 265.942 134.118C266.44 138.394 257.582 137.786 254.209 142.53C253.454 143.6 220.208 133.884 220.208 133.884Z" fill="white"/>
<path d="M237.987 128.932C240.903 126.48 249.014 122.544 256.515 122.538C256.688 122.538 256.778 122.665 256.619 122.691C248.363 124.389 241.049 127.496 238.029 128.993C237.987 129.013 237.96 128.952 237.987 128.926V128.932Z" fill="#263238"/>
<path d="M242.413 135.782C245.156 133.911 253.703 130.222 261.301 130.469C261.474 130.469 261.55 130.603 261.398 130.63C252.699 132.06 245.558 134.532 242.448 135.848C242.406 135.869 242.379 135.808 242.413 135.782Z" fill="#263238"/>
<path d="M194.172 200.444L209.756 173.689C209.756 173.689 181.449 161.447 166.876 157.832C154.63 154.799 149.629 162.497 161.127 173.495C172.008 183.906 194.172 200.444 194.172 200.444Z" fill="#455A64"/>
<path d="M165.705 157.578L158.329 170.515C157.969 170.094 157.643 169.666 157.359 169.259L164.168 157.331C164.659 157.391 165.172 157.471 165.705 157.578Z" fill="#37474F"/>
<path d="M173.961 159.897L164.459 176.569C164.085 176.235 163.711 175.894 163.35 175.573L172.548 159.449C173.012 159.59 173.49 159.737 173.968 159.897H173.961Z" fill="#37474F"/>
<path d="M181.968 162.636L170.872 182.101C170.498 181.781 170.11 181.467 169.736 181.139L180.576 162.135C181.04 162.296 181.504 162.469 181.968 162.636Z" fill="#37474F"/>
<path d="M189.857 165.59L177.404 187.434C177.016 187.133 176.628 186.826 176.24 186.512L188.472 165.069C188.936 165.243 189.4 165.416 189.857 165.59Z" fill="#37474F"/>
<path d="M197.67 168.67L184.004 192.659C183.616 192.359 183.229 192.058 182.841 191.737L196.298 168.123C196.762 168.31 197.213 168.497 197.67 168.67Z" fill="#37474F"/>
<path d="M205.434 171.858L190.647 197.778C190.286 197.504 189.899 197.203 189.483 196.896L204.063 171.29C204.554 171.491 205.005 171.678 205.434 171.865V171.858Z" fill="#37474F"/>
<path d="M201.569 173.074C200.357 174.538 199.408 176.188 198.397 177.752C197.344 179.382 196.354 181.046 195.356 182.703C194.359 184.361 190.654 191.109 189.732 192.8C189.691 192.874 189.836 192.934 189.885 192.86C190.944 191.23 195.149 184.768 196.118 183.138C197.088 181.507 198.072 179.883 198.986 178.226C199.907 176.556 200.96 174.879 201.659 173.121C201.673 173.081 201.611 173.034 201.576 173.074H201.569Z" fill="#263238"/>
<path d="M165.172 177.204C172.728 182.656 179.911 188.543 187.086 194.444C189.476 196.408 191.838 198.399 194.283 200.284L194.006 200.344C194.574 199.535 195.149 198.733 195.744 197.945C195.266 198.88 194.761 199.796 194.255 200.718L194.068 200.611C188.714 197.357 183.921 193.414 179.087 189.519C174.294 185.583 169.619 181.52 165.179 177.21L165.172 177.204Z" fill="#263238"/>
<path d="M165.92 179.142C167.852 179.649 169.452 180.612 170.858 181.941C168.891 181.781 167.056 180.678 165.92 179.142Z" fill="#263238"/>
<path d="M199.318 12.1353C182.917 16.178 173.012 32.2953 177.21 48.1253C178.907 54.5201 182.64 59.8858 187.592 63.7548V78.7094L199.602 69.5215C204.354 70.6641 209.458 70.7042 214.514 69.4546C230.916 65.4119 240.82 49.2946 236.623 33.4647C232.432 17.6414 215.726 8.08591 199.318 12.1353Z" fill="white"/>
<path d="M199.318 12.1351C190.418 14.3736 182.744 20.568 179.045 28.6934C174.716 37.9749 175.894 49.3746 182.093 57.6204C183.72 59.8055 185.66 61.77 187.834 63.4539L187.98 63.5675V63.7546C188.021 68.7395 188.07 73.7243 188.077 78.7092L187.287 78.3417L199.263 69.1203L199.464 68.9667C203.973 70.0625 208.731 70.1494 213.275 69.2139C226.898 66.5678 237.405 54.0989 237.232 40.6678C237.489 21.6571 218.345 7.39079 199.311 12.1418L199.318 12.1351ZM199.318 12.1351C218.379 7.25046 237.828 21.5836 237.849 40.6611C238.264 60.0193 218.912 74.8135 199.471 70.0224L199.935 69.9289L187.904 79.0834L187.114 79.6848V78.7159C187.114 73.731 187.163 68.7461 187.197 63.7613L187.343 64.0553C177.217 56.1904 173.393 42.1913 178.075 30.5243C181.573 21.4767 189.615 14.5206 199.318 12.1418V12.1351Z" fill="#263238"/>
<path d="M208.932 43.6746L209.77 46.8419C210.13 48.205 209.34 49.488 207.927 49.8355C206.618 50.1562 205.178 49.4212 204.818 48.058L203.474 42.993C203.46 42.9462 203.515 42.9328 203.502 42.8794C203.455 42.8571 203.43 42.8281 203.425 42.7925C203.086 41.5229 203.959 40.1197 205.268 39.7922C208.454 39.0104 210.379 35.9366 209.576 32.9163C208.772 29.896 205.559 28.0918 202.373 28.8803C200.302 29.3882 198.771 30.9117 198.238 32.7559C197.843 34.0991 196.43 34.8608 195.038 34.4799C193.701 34.0857 192.918 32.7693 193.313 31.4262C194.331 27.9582 197.226 25.0648 201.112 24.1026C206.972 22.6592 212.984 26.0538 214.48 31.7069C215.761 36.5314 213.344 41.436 208.932 43.6679V43.6746ZM211.758 54.3459L211.993 55.2213C212.353 56.5844 211.564 57.8741 210.151 58.2216C208.842 58.5423 207.401 57.8073 207.041 56.4441L206.805 55.5688C206.459 54.2524 207.339 52.8959 208.648 52.5752C210.061 52.2277 211.404 53.0362 211.758 54.3526V54.3459Z" fill="#5B52F9"/>
</g>
<defs>
<clipPath id="clip0_1668_9159">
<rect width="366" height="288" fill="white"/>
</clipPath>
</defs>
</svg>
