<svg xmlns="http://www.w3.org/2000/svg" width="136" height="91" viewBox="0 0 136 91" fill="none">
  <path d="M125.894 21.4553L123.729 31.9719L122.338 30.6102L119.965 32.3055L118.156 30.0497L114.091 33.0135L110.621 27.1879L106.747 29.4641L105.211 27.3377L100.294 30.1177L98.8145 26.9405L102.262 10.1898L120.741 14.0183L125.894 21.4553Z" fill="#EBEBEB"/>
  <path d="M120.742 14.0183L125.894 21.4553L119.486 20.1277L120.742 14.0183Z" fill="#DBDBDB"/>
  <path d="M123.27 34.0756L120.095 49.5056L95.2051 44.3517L98.3536 29.042L99.8351 32.2215L104.752 29.4414L106.288 31.5656L110.161 29.2894L113.63 35.115L117.695 32.1512L119.507 34.407L121.877 32.7117L123.27 34.0756Z" fill="#EBEBEB"/>
  <path d="M87.644 32.2669L62.277 33.8419L60.2617 1.16876L79.0964 0L86.0109 5.81884L87.644 32.2669Z" fill="#EBEBEB"/>
  <path d="M79.0957 0L86.0103 5.81884L79.4802 6.22507L79.0957 0Z" fill="#DBDBDB"/>
  <path d="M72.064 21.9818L71.9667 21.2442C71.7111 19.7169 72.1273 18.008 73.4505 16.222C74.6425 14.6424 75.2894 13.4918 75.2193 12.2096C75.1378 10.7571 74.1765 9.84029 72.3874 9.91291C71.365 9.96965 70.2499 10.3759 69.5714 10.9569L68.791 9.20258C69.689 8.46728 71.2813 7.92034 72.7855 7.83637C76.0471 7.65255 77.635 9.59065 77.7571 11.7534C77.8657 13.6893 76.8659 15.144 75.5947 16.8438C74.4299 18.3938 74.0454 19.6715 74.2105 21.1194L74.2806 21.857L72.0685 21.9818H72.064ZM71.6613 26.001C71.6025 24.948 72.2698 24.1673 73.2627 24.1128C74.2557 24.0561 74.9773 24.7596 75.0361 25.8126C75.0926 26.8089 74.4819 27.6145 73.4324 27.6735C72.4394 27.7303 71.7156 26.9995 71.6591 26.0032L71.6613 26.001Z" fill="#DBDBDB"/>
  <path d="M27.8645 59.0168C27.9527 56.82 27.9188 54.6209 27.774 52.4286C27.4777 47.9056 26.7358 43.4167 25.7157 39.0049C25.1412 36.5198 24.4355 34.0779 23.7004 31.6383C23.6777 31.5656 23.5601 31.5861 23.5805 31.6632C25.8559 40.2644 27.7242 49.1379 27.5953 58.0795C27.5591 60.5804 27.2696 63.0382 27.0344 65.5255C27.0276 65.5914 27.1362 65.6186 27.152 65.5505C27.6225 63.4218 27.774 61.1932 27.8622 59.0213L27.8645 59.0168Z" fill="#EBEBEB"/>
  <path d="M23.5818 31.661C23.5818 31.661 20.1325 40.4437 20.906 42.5066C21.6773 44.5718 23.2697 45.0121 23.2697 45.0121C23.2697 45.0121 21.1594 48.035 22.6341 50.8695C24.1088 53.704 27.384 53.5701 27.6012 56.7837C27.6012 56.7837 27.7844 43.344 23.5818 31.661Z" fill="#EBEBEB"/>
  <path d="M27.2256 51.2349C27.2301 51.2213 27.2278 51.2054 27.221 51.1895C26.737 45.2186 25.6807 39.2658 23.8757 33.5219C23.8712 33.506 23.8418 33.5105 23.8463 33.5287C24.5294 36.0977 25.1379 38.6803 25.6581 41.2766C25.2102 40.8136 24.6244 40.5481 24.0114 40.3552C24.0001 40.3506 23.9933 40.3688 24.0046 40.3733C24.6425 40.6502 25.2532 40.9702 25.7033 41.5126C25.8051 42.0209 25.9024 42.5316 25.9974 43.0399C25.2261 42.1753 24.1585 41.7463 23.0886 41.3401C23.0728 41.3333 23.066 41.3583 23.0795 41.3628C24.1924 41.8167 25.303 42.4045 26.0584 43.3667C26.3208 44.8237 26.5515 46.2875 26.7506 47.7536C26.1874 47.1635 25.493 46.7663 24.6945 46.5712C24.6696 46.5644 24.6561 46.6007 24.681 46.6075C25.4998 46.8435 26.2055 47.3042 26.7664 47.9487C26.7709 47.9533 26.7755 47.9555 26.78 47.9578C26.8501 48.473 26.9134 48.9904 26.9745 49.5078C26.5402 49.1356 26.0607 48.8542 25.5337 48.6364C25.5201 48.6296 25.5111 48.6523 25.5269 48.6591C26.063 48.8883 26.5447 49.2173 26.97 49.6168C26.9768 49.6213 26.9813 49.6213 26.9881 49.6236C27.0446 50.116 27.1034 50.6062 27.1532 51.101C26.3615 50.1455 25.3844 49.4534 24.2286 49.0063C24.206 48.9972 24.1946 49.0312 24.215 49.0426C25.3392 49.5328 26.3299 50.3112 27.0966 51.2689C27.117 51.2961 27.1441 51.2984 27.169 51.2916C27.2437 52.0473 27.3093 52.8053 27.3658 53.5633C27.3658 53.5747 27.3839 53.5747 27.3839 53.5633C27.3409 52.7872 27.2866 52.011 27.2233 51.2349H27.2256Z" fill="white"/>
  <path d="M24.4546 39.4837C23.8575 39.0707 23.0975 38.8959 22.3827 38.8347C22.3646 38.8347 22.3646 38.8596 22.3827 38.8619C23.1246 38.9731 23.7489 39.2432 24.432 39.5336C24.4614 39.5473 24.4817 39.5019 24.4569 39.4837H24.4546Z" fill="white"/>
  <path d="M24.8733 48.7816C24.4006 48.4957 23.86 48.3345 23.3172 48.2483C23.2991 48.246 23.2968 48.2755 23.3172 48.2778C23.8668 48.3776 24.3554 48.5751 24.8552 48.8202C24.8756 48.8315 24.8937 48.7952 24.8733 48.7839V48.7816Z" fill="white"/>
  <path d="M36.931 42.6519C35.4925 43.6663 34.1127 44.8373 32.9388 46.1536C31.688 47.5561 30.7765 49.1493 30.1386 50.9172C28.8335 54.5392 28.1187 58.4608 28.0531 62.3097C28.017 64.468 28.207 66.6081 28.6684 68.7164C28.6842 68.7935 28.7996 68.7708 28.7883 68.6937C28.2251 64.9831 28.2454 61.1977 28.8516 57.4963C29.4442 53.8629 30.3738 49.9095 32.6764 46.957C33.9295 45.3502 35.4925 44.0839 37.0373 42.7767C37.1188 42.7086 37.0147 42.5951 36.931 42.6541V42.6519Z" fill="#EBEBEB"/>
  <path d="M28.5628 59.6908C28.5628 59.6908 29.748 57.6892 31.4716 55.9598C33.1974 54.2305 34.6495 53.0005 34.8734 51.8544C35.0974 50.7106 33.1454 49.8664 33.1454 49.8664C33.1454 49.8664 35.5317 50.2953 36.1853 49.2922C36.839 48.2869 37.1534 42.4658 37.1534 42.4658C37.1534 42.4658 32.8106 45.5772 30.7862 49.939C28.7619 54.3009 28.5605 59.6931 28.5605 59.6931L28.5628 59.6908Z" fill="#EBEBEB"/>
  <path d="M35.654 43.9568C33.8264 45.7587 31.9875 47.6764 30.9108 50.0434C30.5422 50.8536 30.2278 51.6956 29.9518 52.5534C29.9518 52.5534 29.9518 52.5557 29.9518 52.558C29.8953 52.7304 29.841 52.9006 29.7867 53.0754C29.7822 53.0845 29.7776 53.0935 29.7776 53.1026C29.2461 54.8705 28.8706 56.6974 28.5449 58.4812C28.5449 58.4925 28.5608 58.4993 28.563 58.488C28.7508 57.5802 28.9566 56.6634 29.1873 55.7488C29.1963 55.7488 29.2031 55.7488 29.2122 55.7442C29.5809 55.5877 29.9541 55.4901 30.3522 55.4538C30.377 55.4515 30.377 55.4061 30.3499 55.4084C29.9654 55.4265 29.5876 55.4946 29.2235 55.6149C29.4338 54.7911 29.6623 53.9673 29.9201 53.1571C30.7593 52.9506 31.6346 52.8394 32.4964 52.8189C32.5055 52.8189 32.5077 52.8053 32.4964 52.8053C31.6279 52.7645 30.8113 52.8394 29.9631 53.0209C30.0084 52.8825 30.0536 52.7441 30.1011 52.6056C30.6666 52.4763 31.2366 52.3673 31.8156 52.3151C31.8269 52.3151 31.8246 52.297 31.8156 52.297C31.2479 52.3129 30.6892 52.3719 30.1373 52.5012C30.3725 51.8 30.6281 51.1078 30.9131 50.4338C31.1483 49.8755 31.4266 49.3467 31.7342 48.8361C32.1979 48.7317 32.648 48.6296 33.1252 48.5864C33.1388 48.5864 33.1365 48.5637 33.1252 48.5637C32.6932 48.5365 32.2431 48.5683 31.8246 48.6931C32.0531 48.3232 32.2929 47.9601 32.5507 47.6083C33.5256 47.3927 34.5118 47.1907 35.507 47.3791C35.5251 47.3814 35.5296 47.3541 35.5138 47.3496C34.566 47.1 33.6251 47.2429 32.6796 47.4313C32.7837 47.2929 32.8877 47.159 32.994 47.0228C33.5912 46.8367 34.186 46.7482 34.8149 46.7368C34.8284 46.7368 34.8307 46.7187 34.8149 46.7164C34.2426 46.662 33.6703 46.7164 33.1184 46.8685C33.9237 45.8654 34.8126 44.9213 35.6925 43.9886C35.7332 43.9454 35.7015 43.9205 35.6585 43.9636L35.654 43.9568Z" fill="white"/>
  <path d="M35.6032 47.926C35.3182 47.8965 35.0264 47.8625 34.7392 47.8965C34.7053 47.9011 34.7075 47.9578 34.7414 47.9578C35.0264 47.9669 35.3137 47.9442 35.5987 47.9601C35.6213 47.9601 35.6236 47.9283 35.601 47.926H35.6032Z" fill="white"/>
  <path d="M32.4777 53.5724C32.0208 53.5679 31.5661 53.6904 31.1386 53.8425C31.1273 53.847 31.1341 53.8652 31.1454 53.8606C31.5865 53.754 32.0343 53.7131 32.4822 53.6382C32.5184 53.6314 32.5161 53.5724 32.4777 53.5724Z" fill="white"/>
  <path d="M31.5403 51.6229C31.3548 51.6139 31.1558 51.6456 30.9726 51.6751C30.9545 51.6774 30.9545 51.7092 30.9726 51.7092C31.158 51.7115 31.3593 51.7183 31.5426 51.682C31.5742 51.6751 31.5742 51.6252 31.5403 51.6229Z" fill="white"/>
  <path d="M15.8319 48.8293C17.2298 49.3172 18.6163 49.9436 19.8694 50.7356C21.2039 51.5821 22.3099 52.6578 23.2328 53.94C25.1237 56.5681 26.6052 59.5773 27.5439 62.6751C28.0709 64.4135 28.408 66.1882 28.5233 68.0015C28.5278 68.0673 28.4306 68.0764 28.4215 68.0106C28.0212 64.8787 27.1323 61.8195 25.791 58.9623C24.4746 56.1596 22.8098 53.1775 20.2675 51.3211C18.8832 50.3112 17.327 49.6485 15.7754 48.9495C15.6939 48.9132 15.7528 48.7975 15.8342 48.8247L15.8319 48.8293Z" fill="#EBEBEB"/>
  <path d="M26.5278 60.678C26.5278 60.678 25.1073 59.3322 23.3136 58.3337C21.52 57.3329 20.0588 56.6747 19.6155 55.801C19.1699 54.9273 20.5564 53.7925 20.5564 53.7925C20.5564 53.7925 18.7243 54.6935 17.9643 54.0331C17.2043 53.3704 15.6074 48.7317 15.6074 48.7317C15.6074 48.7317 19.8394 50.2431 22.4813 53.3023C25.1231 56.3615 26.53 60.6803 26.53 60.6803L26.5278 60.678Z" fill="#EBEBEB"/>
  <path d="M26.3081 59.7226C24.191 55.7374 21.3682 52.1313 17.4981 49.7507C17.4981 49.7507 17.4936 49.7507 17.4981 49.7529C18.5159 50.4043 19.4546 51.1554 20.33 51.977C19.5474 51.9543 18.7489 52.0814 18.0545 52.4581C18.0387 52.4672 18.05 52.4876 18.0658 52.4831C18.8394 52.2198 19.5836 52.0473 20.4069 52.0859C20.4182 52.0859 20.425 52.0814 20.434 52.0768C20.572 52.2085 20.7077 52.3401 20.8412 52.474C20.434 52.4921 20.0224 52.5489 19.6265 52.6351C19.6152 52.6374 19.6197 52.6533 19.6288 52.651C20.0586 52.567 20.477 52.5398 20.9135 52.5443C21.6238 53.2592 22.2842 54.024 22.9085 54.8183C22.6258 54.7775 22.3295 54.8002 22.0581 54.8796C22.0377 54.8864 22.0422 54.9136 22.0648 54.9114C22.3725 54.8728 22.6665 54.8773 22.9719 54.8977C23.0872 55.0453 23.2048 55.1928 23.3179 55.3426C22.4471 55.2904 21.5944 55.3743 20.7507 55.5922C20.7371 55.5945 20.7416 55.6149 20.7552 55.6126C21.6283 55.4401 22.5059 55.3857 23.3926 55.4401C23.5011 55.5831 23.6029 55.7306 23.7092 55.8759C23.189 55.86 22.6869 55.9258 22.1802 56.0506C22.1598 56.0552 22.1666 56.0847 22.187 56.0824C22.7072 55.9644 23.2365 55.9326 23.7703 55.9576C24.2249 56.5862 24.6615 57.2307 25.0799 57.8821C24.8583 57.8367 24.6253 57.8616 24.4081 57.9229C24.3968 57.9252 24.3991 57.9433 24.4127 57.9411C24.6615 57.9116 24.8944 57.9433 25.1387 57.9751C25.5165 58.5629 25.8806 59.1575 26.229 59.7566C26.2584 59.8065 26.3398 59.7702 26.3126 59.7158L26.3081 59.7226Z" fill="white"/>
  <path d="M23.015 56.416C22.6011 56.3797 22.1804 56.4455 21.7846 56.5658C21.7733 56.5703 21.7755 56.5862 21.7891 56.5839C22.1962 56.5091 22.5989 56.4795 23.0105 56.4591C23.0377 56.4591 23.0422 56.4183 23.0128 56.416H23.015Z" fill="white"/>
  <path d="M19.3239 51.5594C19.1361 51.539 18.9416 51.5617 18.7561 51.5934C18.7335 51.598 18.7403 51.6298 18.7629 51.6275C18.9484 51.6071 19.1339 51.6139 19.3193 51.6093C19.3487 51.6093 19.3555 51.5639 19.3239 51.5617V51.5594Z" fill="white"/>
  <path d="M31.9855 73.8589H22.4336L23.7952 63.8484L24.1436 61.2817H30.2755L30.6239 63.8484L31.9855 73.8589Z" fill="#DBDBDB"/>
  <path d="M30.6235 63.8484H23.7949L24.1433 61.2817H30.2752L30.6235 63.8484Z" fill="#C7C7C7"/>
  <path d="M31.1525 60.3921H23.2676V62.5662H31.1525V60.3921Z" fill="#DBDBDB"/>
  <path d="M71.1403 91C106.96 91 135.997 87.8075 135.997 83.8694C135.997 79.9313 106.96 76.7388 71.1403 76.7388C35.3207 76.7388 6.2832 79.9313 6.2832 83.8694C6.2832 87.8075 35.3207 91 71.1403 91Z" fill="#EBEBEB"/>
  <path d="M105.395 85.4036H36.4805L46.4463 28.7016H115.361L105.395 85.4036Z" fill="#FFC727"/>
  <path d="M70.0319 22.8283H47.4787L46.4473 28.7016H70.5838L70.0319 22.8283Z" fill="#FFC727"/>
  <g opacity="0.1">
    <path d="M105.395 85.4036H36.4805L46.4463 28.7016H115.361L105.395 85.4036Z" fill="black"/>
    <path d="M70.0319 22.8283H47.4787L46.4473 28.7016H70.5838L70.0319 22.8283Z" fill="black"/>
  </g>
  <path d="M45.0447 25.2248C44.9565 24.8958 44.9362 24.5667 44.9316 24.2376C44.9339 23.9085 44.9543 23.5795 45.0447 23.2504C45.1352 23.5795 45.1556 23.9085 45.1578 24.2376C45.1533 24.5667 45.1329 24.8958 45.0447 25.2248Z" fill="#263238"/>
  <path d="M43.0406 25.8058C42.7985 25.5652 42.6176 25.2906 42.4502 25.007C42.2896 24.721 42.1426 24.426 42.0566 24.0946C42.2987 24.3352 42.4796 24.6098 42.647 24.8935C42.8076 25.1794 42.9546 25.4745 43.0406 25.8058Z" fill="#263238"/>
  <path d="M41.5941 27.315C41.2662 27.2287 40.9721 27.0812 40.6849 26.9201C40.4021 26.7522 40.1284 26.5706 39.8887 26.3278C40.2166 26.414 40.5107 26.5615 40.7979 26.7227C41.0807 26.8906 41.3544 27.0721 41.5941 27.315Z" fill="#263238"/>
  <path d="M41.0948 29.3461C40.7668 29.4346 40.4388 29.4551 40.1109 29.4596C39.7829 29.4573 39.4549 29.4369 39.127 29.3461C39.4549 29.2553 39.7829 29.2349 40.1109 29.2327C40.4388 29.2372 40.7668 29.2576 41.0948 29.3461Z" fill="#263238"/>
  <path d="M41.6742 31.3568C41.4344 31.5997 41.1608 31.7812 40.878 31.9492C40.593 32.1103 40.299 32.2578 39.9688 32.3441C40.2085 32.1012 40.4822 31.9197 40.7649 31.7517C41.0499 31.5906 41.344 31.4431 41.6742 31.3568Z" fill="#263238"/>
  <path d="M43.1773 32.8093C43.0913 33.1384 42.9443 33.4334 42.7837 33.7216C42.6163 34.0053 42.4354 34.2799 42.1934 34.5204C42.2793 34.1914 42.4263 33.8964 42.5869 33.6081C42.7543 33.3245 42.9353 33.0499 43.1773 32.8093Z" fill="#263238"/>
  <path d="M45.2029 33.3108C45.2912 33.6399 45.3115 33.969 45.316 34.298C45.3138 34.6271 45.2934 34.9562 45.2029 35.2852C45.1125 34.9562 45.0921 34.6271 45.0898 34.298C45.0944 33.969 45.1147 33.6399 45.2029 33.3108Z" fill="#263238"/>
  <path d="M47.207 32.7299C47.4491 32.9704 47.63 33.245 47.7974 33.5287C47.958 33.8147 48.105 34.1097 48.1909 34.441C47.9489 34.2005 47.768 33.9259 47.6006 33.6422C47.44 33.3562 47.293 33.0612 47.207 32.7299Z" fill="#263238"/>
  <path d="M48.6543 31.2207C48.9823 31.3069 49.2763 31.4544 49.5636 31.6156C49.8463 31.7835 50.12 31.9651 50.3598 32.2079C50.0318 32.1216 49.7377 31.9741 49.4505 31.813C49.1677 31.6451 48.8941 31.4635 48.6543 31.2207Z" fill="#263238"/>
  <path d="M49.1543 29.1873C49.4823 29.0988 49.8102 29.0783 50.1382 29.0738C50.4662 29.0761 50.7942 29.0965 51.1221 29.1873C50.7942 29.278 50.4662 29.2985 50.1382 29.3007C49.8102 29.2962 49.4823 29.2758 49.1543 29.1873Z" fill="#263238"/>
  <path d="M48.5723 27.1765C48.812 26.9337 49.0857 26.7522 49.3684 26.5842C49.6534 26.4231 49.9475 26.2756 50.2777 26.1893C50.038 26.4322 49.7643 26.6137 49.4815 26.7817C49.1965 26.9428 48.9025 27.0903 48.5723 27.1765Z" fill="#263238"/>
  <path d="M47.0684 25.7264C47.1543 25.3973 47.3013 25.1023 47.4619 24.8141C47.6293 24.5304 47.8103 24.2558 48.0523 24.0152C47.9663 24.3443 47.8193 24.6393 47.6587 24.9275C47.4913 25.2112 47.3104 25.4858 47.0684 25.7264Z" fill="#263238"/>
  <path d="M105.293 85.4036H36.231L26.4258 30.76H95.4877L105.293 85.4036Z" fill="#FFC727"/>
  <path d="M50.3567 64.1639C51.9419 64.1639 53.227 62.8745 53.227 61.284C53.227 59.6934 51.9419 58.404 50.3567 58.404C48.7714 58.404 47.4863 59.6934 47.4863 61.284C47.4863 62.8745 48.7714 64.1639 50.3567 64.1639Z" fill="#263238"/>
  <path d="M73.05 64.1639C74.6352 64.1639 75.9203 62.8745 75.9203 61.284C75.9203 59.6934 74.6352 58.404 73.05 58.404C71.4648 58.404 70.1797 59.6934 70.1797 61.284C70.1797 62.8745 71.4648 64.1639 73.05 64.1639Z" fill="#263238"/>
  <path d="M65.8248 64.6223L65.6665 64.3205C65.6529 64.2932 64.1691 61.5427 61.1857 61.5427C58.4647 61.5427 57.8019 64.1321 57.7748 64.2433L57.6934 64.5724L57.0352 64.4135L57.1143 64.0822C57.1211 64.0504 57.9218 60.8618 61.1857 60.8618C64.4496 60.8618 66.2003 63.8757 66.2681 64.005L66.4265 64.3068L65.8248 64.6223Z" fill="#263238"/>
  <path d="M100.711 60.9526C100.858 60.9208 101.005 60.8868 101.152 60.8482" stroke="#263238" stroke-miterlimit="10"/>
  <path d="M102.021 60.5918C105.481 59.4185 108.379 56.6883 108.65 53.4975C109.252 46.4622 100.711 42.577 101.593 34.4456C102.435 26.6909 110.541 26.1371 113.792 27.2083C117.381 28.393 116.151 31.8539 112.9 31.4068C107.266 30.6329 103.724 24.4873 106.4 17.5155C108.399 12.3072 113.382 10.3418 115.407 9.7427" stroke="#263238" stroke-miterlimit="10"/>
  <path d="M115.846 9.62469C116.126 9.55207 116.285 9.52257 116.285 9.52257" stroke="#263238" stroke-miterlimit="10"/>
  <path d="M119.872 8.26757C119.295 6.47471 115.432 7.11923 116.185 9.46129C116.938 11.8056 120.449 10.0604 119.872 8.26757Z" fill="#263238"/>
  <path d="M114.084 7.54362C114.113 6.75612 115.204 6.15245 116.746 6.43159C118.289 6.71073 119.741 7.75241 119.741 7.75241C119.741 7.75241 118.216 8.68741 116.658 8.85308C115.1 9.01875 114.057 8.33338 114.086 7.54362H114.084Z" fill="#EBEBEB"/>
  <path d="M119.74 7.75241C118.94 7.75695 118.141 7.73198 117.341 7.70702C116.542 7.67298 115.741 7.64121 114.945 7.57539C115.746 7.56859 116.544 7.59582 117.345 7.62078C118.144 7.65482 118.944 7.6866 119.74 7.75241Z" fill="#263238"/>
  <path d="M115.635 6.8469C115.865 6.9513 116.08 7.08292 116.295 7.21228C116.506 7.35072 116.718 7.48688 116.913 7.65028C116.682 7.54589 116.467 7.41426 116.252 7.2849C116.042 7.14647 115.829 7.0103 115.635 6.8469Z" fill="#263238"/>
  <path d="M117.73 7.67979C117.527 7.85226 117.307 7.99751 117.088 8.14502C116.864 8.28346 116.64 8.42416 116.4 8.53763C116.604 8.36516 116.823 8.21991 117.043 8.0724C117.267 7.93396 117.491 7.79326 117.73 7.67979Z" fill="#263238"/>
  <path d="M117.963 7.23498C118.083 7.28717 118.182 7.36434 118.282 7.43923C118.377 7.52093 118.472 7.60263 118.549 7.70929C118.429 7.65709 118.329 7.57993 118.23 7.50504C118.135 7.42334 118.04 7.34164 117.963 7.23498Z" fill="#263238"/>
  <path d="M115.554 12.2141C116.036 12.836 117.273 12.6862 118.361 11.556C119.449 10.4258 120.019 8.72827 120.019 8.72827C120.019 8.72827 118.237 8.86443 116.877 9.64512C115.518 10.4258 115.07 11.5923 115.554 12.2164V12.2141Z" fill="#EBEBEB"/>
  <path d="M120.019 8.726C119.365 9.19123 118.734 9.68143 118.099 10.1716C117.47 10.6686 116.841 11.1634 116.23 11.6831C116.884 11.2178 117.515 10.7276 118.151 10.2374C118.78 9.74044 119.408 9.2457 120.019 8.726Z" fill="#263238"/>
  <path d="M117.217 11.8692C117.343 11.649 117.441 11.4153 117.54 11.1838C117.631 10.9478 117.723 10.714 117.785 10.4667C117.658 10.6868 117.561 10.9205 117.461 11.152C117.371 11.3881 117.278 11.6218 117.217 11.8692Z" fill="#263238"/>
  <path d="M118.434 9.96511C118.17 9.94469 117.905 9.95604 117.643 9.96511C117.38 9.98327 117.116 9.99915 116.855 10.0491C117.12 10.0695 117.385 10.0582 117.647 10.0491C117.91 10.0309 118.174 10.0128 118.434 9.96511Z" fill="#263238"/>
  <path d="M118.879 10.1875C118.947 10.0763 118.981 9.95603 119.019 9.83575C119.049 9.7132 119.078 9.59065 119.078 9.4613C119.01 9.5725 118.976 9.69278 118.938 9.81306C118.908 9.93561 118.879 10.0582 118.879 10.1875Z" fill="#263238"/>
  <path d="M119.872 8.26757C119.517 8.38331 119.135 8.18587 119.019 7.82957C118.904 7.47327 119.101 7.08973 119.456 6.97399C119.811 6.85825 120.193 7.05569 120.309 7.41199C120.424 7.7683 120.227 8.15183 119.872 8.26757Z" fill="#455A64"/>
  <path d="M120.288 9.56115C119.933 9.67689 119.551 9.47945 119.435 9.12315C119.32 8.76684 119.517 8.38331 119.872 8.26757C120.227 8.15183 120.609 8.34927 120.725 8.70557C120.84 9.06187 120.643 9.44541 120.288 9.56115Z" fill="#455A64"/>
</svg>