<svg xmlns="http://www.w3.org/2000/svg" width="108" height="106" viewBox="0 0 108 106" fill="none">
  <path d="M83.7209 44.0999C83.7209 60.4204 70.5002 73.6508 54.1915 73.6508C37.8829 73.6508 24.6621 60.4204 24.6621 44.0999C24.6621 27.7794 37.8829 14.549 54.1915 14.549C70.5002 14.549 83.7209 27.7794 83.7209 44.0999Z" fill="#9EDCFF"/>
  <path d="M69.9922 59.435C69.9885 59.2646 69.9656 59.0951 69.9239 58.9298C69.9074 58.8707 69.8743 58.8141 69.8531 58.755C69.8036 58.6205 69.7588 58.4882 69.688 58.3655C69.6503 58.3017 69.5984 58.2498 69.5536 58.1884C69.4782 58.0821 69.4051 57.9735 69.3131 57.8814C69.2589 57.8295 69.1881 57.787 69.1292 57.7374C69.0372 57.6619 68.9523 57.5792 68.8462 57.5155C68.8368 57.5084 68.825 57.5084 68.8132 57.5013L68.7943 57.4871L47.6205 45.7054C47.2706 45.5112 46.8771 45.409 46.4771 45.4086C46.077 45.4082 45.6833 45.5095 45.333 45.7031L24.0602 57.4848C24.0531 57.4919 24.046 57.5013 24.0342 57.5084L24.0106 57.5178C23.9281 57.5651 23.8668 57.6335 23.789 57.6902C23.7041 57.7539 23.6145 57.8106 23.539 57.8838C23.4683 57.957 23.414 58.042 23.3527 58.1246C23.289 58.2073 23.2183 58.2805 23.1664 58.3702C23.1051 58.4717 23.0721 58.5874 23.0273 58.6984C22.9943 58.7763 22.9518 58.8495 22.9306 58.9345C22.8899 59.0968 22.8669 59.263 22.8622 59.4303C22.8599 59.4704 22.8457 59.5059 22.8457 59.5484V78.4416C22.8457 79.2987 23.3103 80.0897 24.0602 80.5052L45.2316 92.2799L45.234 92.2822L45.2387 92.2846L45.2859 92.3105C45.3873 92.3672 45.4981 92.3979 45.6042 92.438C45.6797 92.4687 45.7528 92.5089 45.833 92.5301C46.2243 92.6312 46.6349 92.6312 47.0262 92.5301C47.104 92.5089 47.1771 92.4687 47.2549 92.438C47.3611 92.3979 47.4719 92.3696 47.5733 92.3105L47.6205 92.2846L47.6252 92.2822L47.6275 92.2799L68.799 80.5052C69.5442 80.0897 70.0088 79.2987 70.0088 78.4416V59.5484C70.0088 59.5082 69.9946 59.4752 69.9922 59.435ZM46.3612 68.6951L30.0569 59.5649L36.5702 55.9572L52.6858 65.1771L46.3612 68.6951ZM46.4744 50.4701L62.7952 59.5531L57.5035 62.4973L41.3973 53.2821L46.4744 50.4701ZM48.7854 86.2355L48.7901 72.827L55.8598 68.8651V76.0806L60.5761 73.7195V66.2231L65.2924 63.5811V77.051L48.7854 86.2355Z" fill="#7A73FF"/>
  <path fill-rule="evenodd" clip-rule="evenodd" d="M70.0109 69.0552V59.5489C70.0109 59.5271 70.0068 59.5075 70.0026 59.4877C69.9991 59.4709 69.9955 59.454 69.9944 59.4355C69.9907 59.2651 69.9678 59.0956 69.9261 58.9303C69.9165 58.8962 69.9015 58.8629 69.8864 58.8294C69.8754 58.805 69.8643 58.7805 69.8553 58.7555C69.8496 58.7399 69.8439 58.7243 69.8382 58.7088C69.795 58.5904 69.7528 58.4745 69.6902 58.366C69.667 58.3267 69.6383 58.2918 69.6093 58.2565C69.5912 58.2346 69.573 58.2124 69.5558 58.1889C69.547 58.1765 69.5383 58.1641 69.5295 58.1517C69.4631 58.0575 69.3965 57.9633 69.3153 57.8819C69.2839 57.8519 69.2471 57.825 69.2102 57.7981C69.1832 57.7785 69.1562 57.7588 69.1314 57.7379C69.1073 57.7181 69.0837 57.6979 69.0601 57.6776C68.9935 57.6204 68.9267 57.563 68.8484 57.516C68.8434 57.5123 68.8378 57.5105 68.8319 57.5086C68.8266 57.5069 68.821 57.5052 68.8154 57.5018L68.7965 57.4876L47.6227 45.7059C47.2728 45.5117 46.8793 45.4095 46.4792 45.4091C46.0792 45.4087 45.6855 45.51 45.3352 45.7035L27.0713 55.8188C30.9169 64.7185 39.0095 71.3515 48.7922 73.1591L48.7923 72.8275L55.862 68.8656V73.6046C57.472 73.5145 59.0474 73.2954 60.5783 72.9574V66.2236L65.2946 63.5816V71.4897C66.9465 70.8182 68.5239 70.0014 70.0109 69.0552ZM30.0591 59.5654L46.3634 68.6956L52.688 65.1776L36.5723 55.9577L30.0591 59.5654ZM62.7974 59.5536L46.4766 50.4705L41.3995 53.2826L57.5057 62.4978L62.7974 59.5536Z" fill="#3D00FF"/>
  <path d="M70.4804 19.6321L72.0146 24.6895C72.1592 25.1712 72.626 25.4958 73.1486 25.4958C73.671 25.4958 74.138 25.1712 74.2826 24.6895L75.8166 19.6321L81.1863 18.1872C81.6977 18.051 82.0423 17.6112 82.0423 17.1191C82.0423 16.627 81.6977 16.1872 81.1863 16.0511L75.8166 14.6062L74.2826 9.54876C74.138 9.0671 73.671 8.74251 73.1486 8.74251C72.626 8.74251 72.1592 9.0671 72.0146 9.54876L70.4804 14.6062L65.111 16.0511C64.5995 16.1872 64.2549 16.627 64.2549 17.1191C64.2549 17.6112 64.5995 18.051 65.111 18.1872L70.4804 19.6321Z" fill="#7A73FF"/>
  <path d="M90.157 31.2349L91.0931 34.3208C91.1812 34.6146 91.4661 34.8127 91.7849 34.8127C92.1037 34.8127 92.3887 34.6146 92.4768 34.3208L93.413 31.2349L96.6892 30.3533C97.0013 30.2703 97.2115 30.002 97.2115 29.7016C97.2115 29.4013 97.0013 29.133 96.6892 29.05L93.413 28.1682L92.4768 25.0825C92.3887 24.7885 92.1037 24.5905 91.7849 24.5905C91.4661 24.5905 91.1812 24.7885 91.0931 25.0825L90.157 28.1682L86.8807 29.05C86.5686 29.133 86.3584 29.4013 86.3584 29.7016C86.3584 30.002 86.5686 30.2703 86.8807 30.3533L90.157 31.2349Z" fill="#7A73FF"/>
</svg>