<svg xmlns="http://www.w3.org/2000/svg" width="52" height="51" viewBox="0 0 52 51" fill="none">
    <path
        d="M17.5562 12.6621C8.42621 12.6621 1.02441 20.0639 1.02441 29.1939C1.02441 33.8045 2.91563 37.9717 5.96113 40.9716C6.50241 36.7066 11.4848 33.3611 17.5562 33.3611C23.6277 33.3611 28.61 36.7066 29.1513 40.9716C32.1968 37.9717 34.0881 33.8045 34.0881 29.1939C34.0881 20.0639 26.6863 12.6621 17.5562 12.6621ZM17.5562 31.8155C13.663 31.8155 10.5001 28.6592 10.5001 24.7593C10.5001 20.8595 13.6564 17.7032 17.5562 17.7032C21.456 17.7032 24.6124 20.8595 24.6124 24.7593C24.6124 28.6592 21.456 31.8155 17.5562 31.8155Z"
        fill="#9EDCFF" />
    <path fill-rule="evenodd" clip-rule="evenodd"
        d="M28.6587 26.1406L26.2995 31.2882C25.8662 32.2295 26.8391 33.2023 27.7804 32.7691L32.9283 30.4099C35.2206 31.7569 37.9896 32.3831 40.9357 31.9105C45.9654 31.1031 50.0301 27.0583 50.8218 22.025C52.1019 13.8763 45.1619 6.94864 37.0088 8.25227C31.983 9.05569 27.9498 13.1281 27.1542 18.1535C26.6894 21.0955 27.3157 23.8524 28.6587 26.1406ZM37.5285 22.3278C37.5285 22.4609 37.6236 22.556 37.7567 22.556H39.9631C40.0963 22.556 40.1914 22.4609 40.1914 22.3278V21.8903C40.1914 21.1539 40.8075 20.7274 41.5157 20.2372C42.472 19.5752 43.5961 18.7971 43.5961 16.9829C43.5961 14.7575 41.9032 13.2739 39.2784 13.2739C36.5964 13.2739 34.7704 14.8526 34.7704 17.1541V17.3443C34.7704 17.4774 34.8656 17.5725 34.9987 17.5725L37.2241 17.6677C37.3763 17.6677 37.4524 17.6106 37.4524 17.4584V17.1541C37.4524 16.3172 38.1371 15.7275 39.2213 15.7275C40.2104 15.7275 40.8762 16.2602 40.8762 17.078C40.8762 17.9399 40.1749 18.4312 39.4143 18.964C38.513 19.5955 37.5285 20.2853 37.5285 21.7191V22.3278ZM37.2812 25.314C37.2812 26.189 37.9089 26.8167 38.7839 26.8167C39.6398 26.8167 40.2675 26.189 40.2675 25.314C40.2675 24.4391 39.6588 23.8304 38.7839 23.8304C37.9089 23.8304 37.2812 24.4391 37.2812 25.314Z"
        fill="#7A73FF" />
    <path fill-rule="evenodd" clip-rule="evenodd"
        d="M28.6588 26.1409L26.2995 31.2884C25.8662 32.2297 26.8391 33.2025 27.7804 32.7693L32.9283 30.4101C33.2731 30.6127 33.6285 30.799 33.9938 30.9676C34.0561 30.3849 34.0881 29.7932 34.0881 29.1939C34.0881 23.873 31.574 19.1391 27.6691 16.1152C27.4387 16.772 27.265 17.4536 27.1542 18.1537C26.6894 21.0957 27.3157 23.8526 28.6588 26.1409Z"
        fill="#3D00FF" />
</svg>