<svg xmlns="http://www.w3.org/2000/svg" width="52" height="53" viewBox="0 0 52 53" fill="none">
    <path d="M19.5406 39.2419C27.4644 39.2419 33.8879 32.8184 33.8879 24.8946C33.8879 16.9709 27.4644 10.5474 19.5406 10.5474C11.6169 10.5474 5.19336 16.9709 5.19336 24.8946C5.19336 32.8184 11.6169 39.2419 19.5406 39.2419Z" fill="#9EDCFF"/>
    <path d="M28.3248 43.6338C32.13 43.6338 35.7792 42.1222 38.4699 39.4316C41.1605 36.7409 42.6721 33.0917 42.6721 29.2865C42.6721 25.4814 41.1605 21.8321 38.4699 19.1415C35.7792 16.4508 32.13 14.9393 28.3248 14.9393C24.5197 14.9393 20.8704 16.4508 18.1798 19.1415C15.4891 21.8321 13.9775 25.4814 13.9775 29.2865C13.9775 33.0917 15.4891 36.7409 18.1798 39.4316C20.8704 42.1222 24.5197 43.6338 28.3248 43.6338ZM29.6699 21.6646V22.55C30.2752 22.6229 30.8805 22.7966 31.4745 22.9648C31.5922 22.9984 31.7043 23.032 31.822 23.06C32.5393 23.2562 32.9597 24.0016 32.7635 24.7133C32.5673 25.4251 31.822 25.851 31.1102 25.6493C31.015 25.6213 30.9196 25.5933 30.8187 25.5708C30.3817 25.4475 29.9445 25.3242 29.5018 25.2401C28.6835 25.0832 27.7308 25.1561 26.9574 25.4868C26.268 25.7838 25.7076 26.5067 26.4866 27.0055C27.0975 27.3979 27.8428 27.5996 28.549 27.7902C28.6947 27.8294 28.8405 27.8686 28.9861 27.9078C29.9557 28.1824 31.1999 28.5356 32.1302 29.1745C33.3407 30.0039 33.9068 31.349 33.6378 32.7949C33.38 34.1904 32.4104 35.1039 31.2447 35.5747C30.7571 35.7708 30.2303 35.8941 29.6755 35.9614V36.9085C29.6755 37.6539 29.0758 38.2536 28.3304 38.2536C27.585 38.2536 26.9854 37.6539 26.9854 36.9085V35.8269C26.0831 35.6251 25.1975 35.3337 24.3233 35.0478C23.6172 34.8124 23.236 34.0559 23.4658 33.3497C23.6956 32.6436 24.4578 32.2624 25.1639 32.4923C25.3209 32.5427 25.4778 32.5987 25.6347 32.6492C26.3409 32.8902 27.0582 33.1311 27.7812 33.2432C28.8405 33.4001 29.6867 33.3049 30.2415 33.0807C30.9925 32.7781 31.34 31.8925 30.6114 31.3937C29.9837 30.9622 29.2047 30.7548 28.4593 30.5531C28.3192 30.5139 28.1791 30.4747 28.039 30.4354C27.0975 30.172 25.9262 29.8358 25.0406 29.2697C23.8245 28.4963 23.208 27.1961 23.4714 25.7614C23.7236 24.3995 24.7772 23.4972 25.8981 23.0152C26.24 22.8695 26.6042 22.7518 26.991 22.6621V21.6646C26.991 20.9191 27.5907 20.3195 28.3361 20.3195C29.0814 20.3195 29.6811 20.9191 29.6811 21.6646H29.6699Z" fill="#7A73FF"/>
    <path d="M33.9355 10.4456L34.6742 12.8788C34.7438 13.1106 34.9685 13.2668 35.2202 13.2668C35.4717 13.2668 35.6965 13.1106 35.7662 12.8788L36.5048 10.4456L39.0901 9.75039C39.3364 9.68487 39.5023 9.47326 39.5023 9.23649C39.5023 8.99971 39.3364 8.78811 39.0901 8.72266L36.5048 8.02745L35.7662 5.59415C35.6965 5.36241 35.4717 5.20624 35.2202 5.20624C34.9685 5.20624 34.7438 5.36241 34.6742 5.59415L33.9355 8.02745L31.3502 8.72266C31.1039 8.78811 30.938 8.99971 30.938 9.23649C30.938 9.47326 31.1039 9.68487 31.3502 9.75039L33.9355 10.4456Z" fill="#7A73FF"/>
    <path d="M43.409 16.028L43.8598 17.5127C43.9022 17.6541 44.0393 17.7494 44.1928 17.7494C44.3463 17.7494 44.4835 17.6541 44.526 17.5127L44.9767 16.028L46.5542 15.6038C46.7044 15.5639 46.8057 15.4348 46.8057 15.2903C46.8057 15.1458 46.7044 15.0167 46.5542 14.9768L44.9767 14.5525L44.526 13.0679C44.4835 12.9265 44.3463 12.8312 44.1928 12.8312C44.0393 12.8312 43.9022 12.9265 43.8598 13.0679L43.409 14.5525L41.8316 14.9768C41.6813 15.0167 41.5801 15.1458 41.5801 15.2903C41.5801 15.4348 41.6813 15.5639 41.8316 15.6038L43.409 16.028Z" fill="#7A73FF"/>
    <path fill-rule="evenodd" clip-rule="evenodd" d="M32.9698 29.9557C33.5633 28.3818 33.8881 26.6761 33.8881 24.8945C33.8881 21.0749 32.3954 17.6038 29.9616 15.0329C29.4208 14.9708 28.8745 14.9393 28.3248 14.9393C24.5197 14.9393 20.8704 16.4508 18.1798 19.1415C15.4891 21.8321 13.9775 25.4814 13.9775 29.2865C13.9775 32.9603 15.3866 36.4888 17.9054 39.1496C18.4421 39.2105 18.9878 39.2417 19.5408 39.2417C22.2756 39.2417 24.8316 38.4766 27.0066 37.1487C26.9927 37.0708 26.9854 36.9905 26.9854 36.9085V35.8269C26.1011 35.6291 25.233 35.3453 24.3757 35.065L24.3233 35.0478C23.6172 34.8124 23.236 34.0559 23.4658 33.3497C23.6956 32.6436 24.4578 32.2624 25.1639 32.4923C25.2424 32.5174 25.3209 32.5441 25.3993 32.5707C25.4778 32.5973 25.5563 32.6239 25.6347 32.6492C26.3409 32.8902 27.0582 33.1311 27.7812 33.2432C28.8405 33.4001 29.6867 33.3049 30.2415 33.0807C30.9925 32.7781 31.34 31.8925 30.6114 31.3937C29.9919 30.9678 29.225 30.7603 28.4885 30.561L28.4593 30.5531L28.039 30.4354C27.0975 30.172 25.9262 29.8358 25.0406 29.2697C23.8245 28.4963 23.208 27.1961 23.4714 25.7614C23.7236 24.3995 24.7772 23.4972 25.8981 23.0152C26.24 22.8695 26.6042 22.7518 26.991 22.6621V21.6646C26.991 20.9191 27.5907 20.3195 28.3361 20.3195C29.0814 20.3195 29.6811 20.9191 29.6811 21.6646H29.6699V22.55C30.2609 22.6212 30.852 22.7885 31.4326 22.9529L31.4745 22.9648C31.496 22.9709 31.5173 22.977 31.5386 22.9832C31.6333 23.0105 31.7258 23.0371 31.822 23.06C32.5393 23.2562 32.9597 24.0016 32.7635 24.7133C32.5673 25.4251 31.822 25.851 31.1102 25.6493C31.015 25.6213 30.9196 25.5933 30.8187 25.5708C30.3817 25.4475 29.9445 25.3242 29.5018 25.2401C28.6835 25.0832 27.7308 25.1561 26.9574 25.4868C26.268 25.7838 25.7076 26.5067 26.4866 27.0055C27.0975 27.3979 27.8428 27.5996 28.549 27.7902L28.9861 27.9078C29.9557 28.1824 31.1999 28.5356 32.1302 29.1745C32.4589 29.3997 32.74 29.6628 32.9698 29.9557Z" fill="#3D00FF"/>
  </svg>