<svg xmlns="http://www.w3.org/2000/svg" width="52" height="53" viewBox="0 0 52 53" fill="none">
    <path d="M20.2237 39.2974C29.3499 39.2974 36.7482 31.8991 36.7482 22.7729C36.7482 13.6467 29.3499 6.24843 20.2237 6.24843C11.0975 6.24843 3.69922 13.6467 3.69922 22.7729C3.69922 31.8991 11.0975 39.2974 20.2237 39.2974Z" fill="#9EDCFF"/>
    <path d="M19.3746 34.7711C17.207 27.8469 21.0612 20.4802 27.9853 18.3126C31.7878 17.1222 35.7228 17.7497 38.8624 19.7047C39.5712 20.1512 40.508 19.9307 40.9483 19.2237C41.3887 18.5168 41.1743 17.5782 40.4674 17.1379C36.6092 14.7262 31.7621 13.9541 27.0798 15.42C18.5586 18.0875 13.8145 27.1555 16.482 35.6766L17.2367 38.0871C17.4875 38.8886 18.3342 39.3316 19.1357 39.0807C19.9372 38.8298 20.3802 37.9831 20.1292 37.1816L19.3746 34.7711ZM46.007 22.9336C45.5991 22.2011 44.6711 21.9424 43.9466 22.3545C43.222 22.7666 42.9554 23.6904 43.3675 24.4149C43.8044 25.1979 44.1725 26.0355 44.4517 26.9274L45.2063 29.3379C45.4573 30.1394 46.3039 30.5823 47.1054 30.3314C47.9069 30.0805 48.3498 29.2339 48.0989 28.4324L47.3424 26.0158C47.001 24.9251 46.5526 23.8942 46.013 22.9317L46.007 22.9336ZM28.5889 20.241C27.444 20.5994 26.3918 21.1273 25.4669 21.7873C24.6453 22.3754 24.7871 23.5684 25.6439 24.1074C26.2284 24.4736 26.9806 24.4036 27.5648 24.0288C28.1488 23.6541 28.7954 23.3524 29.4945 23.1336C33.755 21.7998 38.289 24.1719 39.6228 28.4325L40.0925 29.933C40.5679 31.4516 40.9511 32.9925 41.248 34.5538C41.421 35.4656 42.3389 36.0517 43.2308 35.7725C43.9418 35.5499 44.3883 34.8411 44.2519 34.1096C43.9339 32.3962 43.5157 30.7008 42.9931 29.0316L42.5214 27.525C40.6878 21.6675 34.4525 18.4054 28.595 20.2391L28.5889 20.241ZM23.5393 26.3675C22.791 25.9004 21.7997 26.1578 21.4889 26.9829C20.6571 29.2085 20.5371 31.7207 21.3031 34.1674L21.7728 35.6679C22.2293 37.1263 22.5291 38.6337 22.6591 40.148C22.7485 41.1522 23.7238 41.8791 24.688 41.5773C25.3207 41.3792 25.7552 40.78 25.6994 40.116C25.555 38.3019 25.2124 36.5101 24.6654 34.7625L24.1956 33.2619C23.6825 31.6228 23.7193 29.9438 24.1966 28.4247C24.4343 27.6622 24.2146 26.7913 23.5393 26.3675ZM30.0982 25.062C26.9043 26.0618 25.1242 29.4643 26.124 32.6582L26.5937 34.1588C27.271 36.3222 27.6654 38.5543 27.7637 40.813C27.8045 41.7464 28.7146 42.4342 29.6065 42.155C30.179 41.9758 30.5682 41.4436 30.5453 40.8421C30.4423 38.2937 30.0093 35.7693 29.2453 33.3287L28.7756 31.8281C28.2342 30.0986 29.1987 28.255 30.9283 27.7135C32.6578 27.1721 34.5014 28.1367 35.0428 29.8662L35.5126 31.3667C36.1974 33.5543 36.6675 35.7957 36.9214 38.0652C37.0209 38.9538 37.8985 39.5591 38.7483 39.2931C39.3629 39.1007 39.7612 38.5128 39.6931 37.8725C39.4251 35.389 38.915 32.9351 38.1642 30.5367L37.6944 29.0361C36.6946 25.8422 33.2921 24.0621 30.0982 25.062ZM33.3555 30.3944C33.1046 29.5929 32.2579 29.15 31.4564 29.4008C30.6549 29.6518 30.212 30.4985 30.4629 31.2999L30.9327 32.8005C32.0627 36.4102 32.5204 40.1973 32.2793 43.9716L32.2124 45.0049C32.1571 45.8427 32.7929 46.5634 33.6288 46.6127C34.4647 46.662 35.1873 46.0322 35.2366 45.1962L35.3035 44.1629C35.5674 40.0176 35.0666 35.8602 33.8253 31.895L33.3555 30.3944Z" fill="#7A73FF"/>
    <path fill-rule="evenodd" clip-rule="evenodd" d="M36.6771 24.3195C36.7244 23.8104 36.7486 23.2944 36.7486 22.7729C36.7486 22.0988 36.7082 21.434 36.6297 20.781C34.2013 19.6427 31.3562 19.3747 28.595 20.2391L28.5889 20.241C27.444 20.5994 26.3918 21.1273 25.4669 21.7873C24.6453 22.3754 24.7871 23.5684 25.6439 24.1074C26.2284 24.4736 26.9806 24.4036 27.5648 24.0288C28.1488 23.6541 28.7954 23.3524 29.4945 23.1336C32.0375 22.3375 34.6779 22.8617 36.6771 24.3195ZM36.2899 26.6556C34.7467 25.0459 32.3697 24.3509 30.0982 25.062C26.9043 26.0618 25.1242 29.4643 26.124 32.6582L26.5937 34.1588C26.9525 35.3046 27.2318 36.4697 27.4298 37.6477C28.3239 37.2138 29.1729 36.7016 29.9681 36.1202C29.7741 35.1799 29.5332 34.2484 29.2453 33.3287L28.7756 31.8281C28.2342 30.0986 29.1987 28.255 30.9283 27.7135C32.6578 27.1721 34.5014 28.1367 35.0428 29.8662L35.0862 30.0047C35.602 28.9466 36.0082 27.8254 36.2899 26.6556ZM33.8819 32.0775C33.8631 32.0167 33.8443 31.9558 33.8253 31.895L33.3555 30.3944C33.1046 29.5929 32.2579 29.15 31.4564 29.4009C30.6549 29.6518 30.212 30.4985 30.4629 31.3L30.9327 32.8005C31.1451 33.479 31.3338 34.1639 31.4985 34.8538C32.3911 34.0205 33.1912 33.0893 33.8819 32.0775ZM25.5076 38.4346C25.3228 37.1943 25.0428 35.9679 24.6654 34.7625L24.1956 33.2619C23.6825 31.6228 23.7193 29.9438 24.1966 28.4247C24.4343 27.6622 24.2146 26.7913 23.5393 26.3675C22.791 25.9004 21.7997 26.1578 21.4889 26.9829C20.6571 29.2085 20.5371 31.7207 21.3031 34.1674L21.7728 35.668C22.1274 36.8008 22.3875 37.9632 22.5468 39.1354C23.5666 38.9919 24.5565 38.7554 25.5076 38.4346ZM36.1701 18.4234C33.6124 17.5435 30.7635 17.4429 27.9853 18.3126C21.0612 20.4802 17.207 27.8469 19.3746 34.7711L20.1292 37.1816C20.3802 37.9831 19.9372 38.8298 19.1357 39.0807C18.3342 39.3316 17.4875 38.8886 17.2367 38.0871L16.482 35.6766C13.8145 27.1555 18.5586 18.0875 27.0798 15.42C29.6592 14.6125 32.2885 14.4841 34.775 14.9349C35.3658 16.0293 35.8367 17.198 36.1701 18.4234Z" fill="#3D00FF"/>
  </svg>