<svg xmlns="http://www.w3.org/2000/svg" width="52" height="51" viewBox="0 0 52 51" fill="none">
    <path d="M42.3333 20.2789C42.3333 29.2696 35.045 36.5579 26.0543 36.5579C17.0637 36.5579 9.77539 29.2696 9.77539 20.2789C9.77539 11.2883 17.0637 4 26.0543 4C35.045 4 42.3333 11.2883 42.3333 20.2789Z" fill="#9EDCFF"/>
    <path d="M17.6759 23.1875L16.0107 18.7603C17.2456 18.8901 18.4826 18.5358 19.4619 17.772C19.7269 17.4522 20.075 17.2114 20.4679 17.0766C20.8611 16.9419 21.2837 16.9181 21.6894 17.0081C22.1252 17.1218 22.4756 17.4449 22.624 17.8701C22.692 18.2581 22.9269 18.5969 23.2664 18.7967C23.9882 19.0689 24.7925 19.0142 25.471 18.6469C25.8009 18.5335 26.4186 18.3188 26.4994 18.4224C26.4106 20.1531 25.9247 21.8397 25.0794 23.3523C23.9621 23.6959 22.8008 23.8758 21.6318 23.8869L21.6302 23.8867C20.2829 23.8696 18.9475 23.6334 17.6759 23.1875ZM32.418 40.9615C32.2742 42.1816 31.7574 43.3275 30.9385 44.2432C30.1194 45.1589 29.0379 45.7995 27.8414 46.0777C23.613 47.1196 19.1956 47.1196 14.967 46.0777C13.7705 45.7995 12.689 45.1589 11.8699 44.2432C11.0507 43.3276 10.5342 42.1817 10.3904 40.9615C9.62762 32.4964 15.5811 26.4313 17.1624 24.9802C18.5954 25.4668 20.0956 25.7243 21.6088 25.743H21.6275C23.0288 25.7315 24.4207 25.5122 25.7577 25.0917C27.4878 26.6919 33.1622 32.6452 32.418 40.9615ZM21.7948 34.915C21.7577 34.915 21.739 34.8963 21.7017 34.8963C20.3621 34.2267 20.4738 33.8545 20.5853 33.5196C20.6603 33.313 20.7969 33.1345 20.9765 33.0081C21.1561 32.8817 21.3702 32.8134 21.59 32.8126H21.6087C21.8254 32.8025 22.0404 32.8596 22.2233 32.9761C22.4066 33.0927 22.5493 33.2629 22.6319 33.4638C22.8255 33.9383 23.3636 34.1701 23.8411 33.9847C24.0716 33.8947 24.2561 33.7161 24.354 33.4887C24.4518 33.2616 24.4547 33.0047 24.362 32.7755C24.0435 31.9601 23.3622 31.3405 22.5202 31.1012V30.3755C22.5187 29.8623 22.1031 29.4468 21.59 29.4452C21.3424 29.4429 21.1044 29.54 20.9295 29.7152C20.7545 29.8901 20.6572 30.1281 20.6598 30.3755V31.1196C19.7931 31.4038 19.1108 32.0791 18.8177 32.9429C18.0736 35.194 20.2502 36.2545 20.9572 36.5893C20.9943 36.608 21.013 36.6264 21.0501 36.6264C22.4083 37.2961 22.7244 37.6125 22.5941 38.1705C22.5012 38.5611 22.0174 38.7285 21.6268 38.7659H21.4965C21.2214 38.7921 20.9447 38.7376 20.7002 38.6086C20.4557 38.4799 20.254 38.2823 20.1201 38.0404C19.9205 37.5694 19.3794 37.3464 18.906 37.5398C18.4323 37.7334 18.2023 38.2715 18.39 38.7475C18.7957 39.6886 19.6496 40.3605 20.6597 40.5334V40.9056C20.6571 41.153 20.7545 41.391 20.9294 41.5662C21.1043 41.7411 21.3423 41.8382 21.59 41.8359C22.1031 41.8343 22.5187 41.4188 22.5202 40.9056V40.4592C22.971 40.3515 23.384 40.1233 23.7151 39.7989C24.0461 39.4745 24.2825 39.066 24.399 38.6172C24.9202 36.4406 22.9669 35.4917 21.7948 34.915Z" fill="#7A73FF"/>
    <path fill-rule="evenodd" clip-rule="evenodd" d="M13.2632 29.9123C14.8194 27.3006 16.6081 25.5184 17.3732 24.8162C18.8061 25.3029 20.3063 25.5603 21.8195 25.579H21.8382C23.2396 25.5676 24.6315 25.3483 25.9684 24.9278C27.2858 26.1462 30.8899 29.8884 32.2061 35.2758C30.3655 35.9976 28.3615 36.3939 26.265 36.3939C25.5551 36.3939 24.8558 36.3485 24.1699 36.2604C23.6022 35.5366 22.6904 35.088 22.0232 34.7597L22.0056 34.751C21.9871 34.751 21.9731 34.7464 21.9592 34.7417C21.9452 34.737 21.9311 34.7323 21.9124 34.7323C20.5729 34.0627 20.6845 33.6905 20.7961 33.3557C20.8711 33.1491 21.0076 32.9705 21.1872 32.8441C21.3668 32.7177 21.5809 32.6494 21.8008 32.6487H21.8195C22.0362 32.6385 22.2511 32.6956 22.4341 32.8122C22.6173 32.9287 22.7601 33.099 22.8426 33.2999C23.0362 33.7743 23.5743 34.0061 24.0518 33.8208C24.2823 33.7307 24.4669 33.5522 24.5647 33.3248C24.6626 33.0977 24.6654 32.8407 24.5728 32.6116C24.2543 31.7961 23.573 31.1765 22.731 30.9372V30.2115C22.7294 29.6984 22.3139 29.2828 21.8008 29.2813C21.5531 29.279 21.3151 29.376 21.1402 29.5512C20.9653 29.7262 20.8679 29.9642 20.8705 30.2115V30.9556C20.0039 31.2398 19.3216 31.9152 19.0285 32.7789C18.7618 33.5856 18.8702 34.2394 19.1517 34.7617C16.8247 33.6295 14.8079 31.959 13.2632 29.9123ZM16.2214 18.5964L17.8867 23.0235C19.1582 23.4694 20.4937 23.7056 21.841 23.7227L21.8425 23.723C23.0116 23.7118 24.1728 23.532 25.2901 23.1883C26.1355 21.6757 26.6214 19.9891 26.7101 18.2585C26.6307 18.1566 26.0317 18.3626 25.6982 18.4773L25.6818 18.483C25.0033 18.8502 24.1989 18.905 23.4771 18.6327C23.1376 18.4329 22.9027 18.0942 22.8347 17.7061C22.6863 17.281 22.3359 16.9578 21.9001 16.8442C21.4944 16.7541 21.0719 16.778 20.6787 16.9127C20.2857 17.0474 19.9376 17.2883 19.6726 17.608C18.6934 18.3719 17.4564 18.7262 16.2214 18.5964Z" fill="#3D00FF"/>
  </svg>