<svg xmlns="http://www.w3.org/2000/svg" width="53" height="53" viewBox="0 0 53 53" fill="none">
    <path d="M39.3192 29.0689C39.3192 21.8358 33.4545 15.9711 26.2214 15.9711C18.9883 15.9711 13.1237 21.8358 13.1237 29.0689C13.1237 36.3019 18.9883 42.1666 26.2214 42.1666C33.4545 42.1666 39.3192 36.3019 39.3192 29.0689ZM8.75391 29.0689C8.75391 19.4209 16.5735 11.6014 26.2214 11.6014C35.8694 11.6014 43.689 19.4209 43.689 29.0689C43.689 38.7168 35.8694 46.5364 26.2214 46.5364C16.5735 46.5364 8.75391 38.7053 8.75391 29.0689ZM26.2214 34.5311C29.2343 34.5311 31.6836 32.0932 31.6836 29.0689C31.6836 26.0446 29.2458 23.6067 26.2214 23.6067C23.1971 23.6067 20.7592 26.0446 20.7592 29.0689C20.7592 32.0932 23.1971 34.5311 26.2214 34.5311ZM26.2214 19.2484C31.6491 19.2484 36.0418 23.6412 36.0418 29.0689C36.0418 34.4966 31.6491 38.8893 26.2214 38.8893C20.7937 38.8893 16.401 34.4966 16.401 29.0689C16.401 23.6412 20.7937 19.2484 26.2214 19.2484ZM24.0366 29.0689C24.0366 27.8614 25.014 26.884 26.2214 26.884C27.4288 26.884 28.4063 27.8614 28.4063 29.0689C28.4063 30.2763 27.4288 31.2538 26.2214 31.2538C25.014 31.2538 24.0366 30.2763 24.0366 29.0689Z" fill="#9EDCFF"/>
    <path d="M31.8926 20.9051L31.2573 17.0796C31.1303 16.3044 31.3717 15.5291 31.9307 14.9699L35.7928 11.1063C36.4026 10.4963 37.4316 10.7123 37.7619 11.513L39.4896 15.8469L43.8218 17.5753C44.6222 17.9057 44.8381 18.9352 44.2283 19.5452L40.3663 23.4088C39.82 23.9553 39.0323 24.2095 38.2574 24.0824L34.4334 23.4469L27.4969 30.3861C26.7855 31.0978 25.6421 31.0978 24.9433 30.3861C24.2447 29.6744 24.2319 28.5306 24.9433 27.8316L31.8799 20.8924L31.8926 20.9051Z" fill="#7A73FF"/>
    <path fill-rule="evenodd" clip-rule="evenodd" d="M34.341 23.5399C33.6573 22.5372 32.7926 21.668 31.7938 20.979L28.6179 24.1561C29.7298 24.6976 30.6284 25.6051 31.1588 26.7234L34.341 23.5399ZM31.242 16.9681C34.4533 18.302 37.0194 20.8772 38.3415 24.0947C39.0892 24.1909 39.8401 23.9357 40.3667 23.4088L42.0672 21.7078C40.3407 17.9972 37.3494 14.9944 33.6471 13.2534L31.9311 14.9699C31.399 15.5023 31.1547 16.2305 31.242 16.9681ZM28.3589 29.5243C28.3901 29.3774 28.4064 29.2251 28.4064 29.0689C28.4064 27.8614 27.429 26.884 26.2215 26.884C26.099 26.884 25.9787 26.8941 25.8617 26.9134L24.9439 27.8317C24.2324 28.5306 24.2451 29.6745 24.9439 30.3862C25.6426 31.0979 26.786 31.0979 27.4974 30.3862L28.3589 29.5243Z" fill="#3D00FF"/>
  </svg>