<svg xmlns="http://www.w3.org/2000/svg" width="53" height="51" viewBox="0 0 53 51" fill="none">
    <path fill-rule="evenodd" clip-rule="evenodd" d="M15.8826 11.154C13.5474 11.154 11.6543 13.0106 11.6543 15.3009V30.3288C11.6543 32.6191 13.5474 34.4757 15.8826 34.4757H37.0239C39.3591 34.4757 41.2522 32.6191 41.2522 30.3288V15.3009C41.2522 13.0106 39.3591 11.154 37.0239 11.154H15.8826ZM18.8782 15.5507C18.8782 16.594 18.0158 17.4398 16.9521 17.4398C15.8883 17.4398 15.026 16.594 15.026 15.5507C15.026 14.5075 15.8883 13.6617 16.9521 13.6617C18.0158 13.6617 18.8782 14.5075 18.8782 15.5507ZM22.7217 17.4398C23.7855 17.4398 24.6479 16.594 24.6479 15.5508C24.6479 14.5075 23.7855 13.6617 22.7217 13.6617C21.6579 13.6617 20.7956 14.5075 20.7956 15.5508C20.7956 16.594 21.6579 17.4398 22.7217 17.4398ZM28.4907 17.4398C29.5545 17.4398 30.4169 16.594 30.4169 15.5508C30.4169 14.5075 29.5545 13.6617 28.4907 13.6617C27.427 13.6617 26.5646 14.5075 26.5646 15.5508C26.5646 16.594 27.427 17.4398 28.4907 17.4398Z" fill="#9EDCFF"/>
    <path fill-rule="evenodd" clip-rule="evenodd" d="M43.4728 12.9455L39.6908 7.37582C39.3542 6.8784 38.7535 6.5714 38.1133 6.5714H14.5634C13.9231 6.5714 13.3225 6.8784 12.9859 7.37582L9.19071 12.9455C7.23702 15.8193 8.96628 19.8231 12.6163 20.2775C12.8737 20.3082 13.1443 20.3266 13.4149 20.3266C15.1376 20.3266 16.6689 19.6266 17.7183 18.5458C18.7678 19.6266 20.2991 20.3266 22.0217 20.3266C23.7511 20.3266 25.2757 19.6266 26.3251 18.5458C27.3746 19.6266 28.9059 20.3266 30.6286 20.3266C32.3578 20.3266 33.8825 19.6266 34.932 18.5458C35.988 19.6266 37.5127 20.3266 39.2354 20.3266C39.5126 20.3266 39.77 20.3082 40.034 20.2775C43.6972 19.8231 45.433 15.8254 43.4728 12.9455ZM18.8782 15.5504C18.8782 16.5937 18.0158 17.4395 16.952 17.4395C15.8882 17.4395 15.0259 16.5937 15.0259 15.5504C15.0259 14.5071 15.8882 13.6613 16.952 13.6613C18.0158 13.6613 18.8782 14.5071 18.8782 15.5504ZM22.7216 17.4396C23.7854 17.4396 24.6477 16.5938 24.6477 15.5504C24.6477 14.5071 23.7854 13.6614 22.7216 13.6614C21.6579 13.6614 20.7955 14.5071 20.7955 15.5504C20.7955 16.5938 21.6579 17.4396 22.7216 17.4396ZM28.4907 17.4396C29.5545 17.4396 30.4168 16.5938 30.4168 15.5504C30.4168 14.5071 29.5545 13.6614 28.4907 13.6614C27.4269 13.6614 26.5645 14.5071 26.5645 15.5504C26.5645 16.5938 27.4269 17.4396 28.4907 17.4396Z" fill="#7A73FF"/>
    <path fill-rule="evenodd" clip-rule="evenodd" d="M41.1321 20.0191V15.3009C41.1321 13.0106 39.239 11.1539 36.9038 11.1539H15.7625C13.4273 11.1539 11.5342 13.0106 11.5342 15.3009V20.0231C11.8725 20.1433 12.2339 20.2299 12.6164 20.2775C12.8738 20.3083 13.1444 20.3267 13.4151 20.3267C15.1377 20.3267 16.669 19.6266 17.7184 18.5458C18.7679 19.6266 20.2992 20.3267 22.0219 20.3267C23.7512 20.3267 25.2758 19.6266 26.3253 18.5458C27.3748 19.6266 28.906 20.3267 30.6287 20.3267C32.358 20.3267 33.8827 19.6266 34.9321 18.5458C35.9882 19.6266 37.5128 20.3267 39.2355 20.3267C39.5127 20.3267 39.7701 20.3083 40.0341 20.2775C40.4225 20.2294 40.7892 20.1414 41.1321 20.0191ZM16.9522 17.4395C18.0159 17.4395 18.8783 16.5938 18.8783 15.5504C18.8783 14.5072 18.0159 13.6614 16.9522 13.6614C15.8884 13.6614 15.0261 14.5072 15.0261 15.5504C15.0261 16.5938 15.8884 17.4395 16.9522 17.4395ZM24.6479 15.5505C24.6479 16.5938 23.7855 17.4396 22.7217 17.4396C21.658 17.4396 20.7957 16.5938 20.7957 15.5505C20.7957 14.5072 21.658 13.6615 22.7217 13.6615C23.7855 13.6615 24.6479 14.5072 24.6479 15.5505ZM30.4169 15.5505C30.4169 16.5938 29.5546 17.4396 28.4908 17.4396C27.427 17.4396 26.5647 16.5938 26.5647 15.5505C26.5647 14.5072 27.427 13.6615 28.4908 13.6615C29.5546 13.6615 30.4169 14.5072 30.4169 15.5505Z" fill="#3D00FF"/>
    <path d="M28.1631 27.8665V42.3238C28.1631 42.7995 28.5419 43.1816 29.0049 43.1816C29.2459 43.1816 29.4793 43.0763 29.64 42.8892L32.8004 39.2047L35.0234 43.7392C35.3256 44.3552 36.0603 44.6047 36.6648 44.2967C37.2693 43.9887 37.5142 43.24 37.212 42.624L35.0425 38.1909H39.5612C40.028 38.1909 40.4068 37.8049 40.4068 37.3293C40.4068 37.0837 40.3035 36.8497 40.1236 36.6859L29.64 27.192C29.4755 27.0439 29.2689 26.962 29.0508 26.962C28.5611 26.962 28.1631 27.3675 28.1631 27.8665Z" fill="#7A73FF"/>
    <path fill-rule="evenodd" clip-rule="evenodd" d="M37.6356 34.4326C37.4359 34.4609 37.2317 34.4756 37.0241 34.4756H28.1631V27.8663C28.1631 27.3672 28.5611 26.9617 29.0508 26.9617C29.2689 26.9617 29.4755 27.0436 29.64 27.1918L37.6356 34.4326Z" fill="#3D00FF"/>
  </svg>