<svg xmlns="http://www.w3.org/2000/svg" width="53" height="53" viewBox="0 0 53 53" fill="none">
    <path d="M34.456 27.4374C33.8306 29.4175 32.9448 31.3195 31.6942 33.2736C30.3133 35.4361 27.1607 38.8492 24.0342 40.9336C22.2624 42.106 20.3084 43.044 18.198 43.6954C17.4685 43.9299 16.7129 44.0341 15.9573 44.0341C14.0553 44.0341 12.023 43.3567 10.2774 42.106L9.10492 41.2462C8.53174 40.8294 8.14091 40.178 8.08884 39.5266C8.0367 38.9795 8.21912 38.4584 8.58388 38.0676L10.9809 35.5664C11.9449 34.5502 13.5864 34.3679 15.0193 35.0974L17.3903 36.2959C17.755 36.4783 18.1719 36.4783 18.5367 36.2959C22.4188 34.3939 25.9622 30.4597 27.1607 27.75C27.3171 27.4113 27.291 27.0205 27.1086 26.6818L25.858 24.2327C25.1285 22.7997 25.3108 21.1582 26.327 20.1942L28.8282 17.7972C29.219 17.4325 29.7401 17.25 30.2872 17.3022C30.9386 17.3542 31.59 17.7451 32.0068 18.3183L32.8666 19.5168C34.6384 21.992 35.2376 24.9622 34.456 27.4634V27.4374Z" fill="#7A73FF"/>
    <path d="M44.5551 37.4956C44.0862 37.9646 43.4608 38.2252 42.8355 38.2252C42.5229 38.2252 42.2363 38.173 41.9236 38.0427L36.8169 36.0105C35.41 36.8182 33.8988 37.3914 32.3355 37.7041C25.822 39.0328 18.9696 35.75 16.0776 29.8877C14.1756 26.0577 14.0713 21.6284 15.7649 17.7463C17.5106 13.786 20.9237 10.7898 25.1706 9.56519C26.5254 9.17436 27.9323 8.96594 29.3132 8.96594C34.6023 8.96594 39.6569 11.7798 42.2883 16.5217C44.5551 20.6383 44.7115 25.3542 42.7574 29.5751L45.0502 34.9423C45.441 35.8281 45.2586 36.8182 44.5812 37.5216L44.5551 37.4956Z" fill="#9EDCFF"/>
    <path fill-rule="evenodd" clip-rule="evenodd" d="M27.7422 37.9031C25.1368 37.6087 22.6414 36.6368 20.5415 35.1221C23.5919 33.0485 26.1726 29.9833 27.1605 27.75C27.3168 27.4113 27.2907 27.0205 27.1083 26.6818L25.8577 24.2327C25.1282 22.7997 25.3106 21.1582 26.3267 20.1942L28.8279 17.7972C29.2188 17.4325 29.7398 17.25 30.287 17.3022C30.9384 17.3542 31.5897 17.7451 32.0066 18.3183L32.8664 19.5168C34.6381 21.992 35.2373 24.9622 34.4557 27.4634V27.4374C33.8304 29.4175 32.9445 31.3195 31.6939 33.2736C30.8749 34.5562 29.4327 36.2788 27.7422 37.9031Z" fill="#3D00FF"/>
  </svg>